# This file uses centimeters as units for non-parametric coordinates.

mtllib area_tiburon.mtl
g default
v 49.826042 0.190297 -37.664909
v 62.144402 0.190297 -22.612133
v 62.144402 20.818596 -22.612133
v 49.826042 20.818596 -37.664909
v -62.146420 0.190297 -22.623911
v -49.827965 0.190297 -37.676613
v -49.827965 20.818596 -37.676613
v -62.146420 20.818596 -22.623911
v -61.700275 0.190297 23.890615
v -61.700275 0.190297 -23.828854
v -61.700275 20.818596 -23.828854
v -61.700275 20.818596 23.890615
v -29.361656 0.182898 38.951248
v 29.227095 0.182898 38.951248
v -29.361656 3.095549 38.951248
v 29.227095 3.095549 38.951248
v -29.361656 3.095549 37.042450
v 29.227095 3.095549 37.042450
v -29.361656 0.182898 37.042450
v 29.227095 0.182898 37.042450
v -51.273426 0.190297 38.951248
v -29.046492 0.190297 38.951248
v -51.273426 20.818596 38.951248
v -29.046492 20.818596 38.951248
v -51.273426 20.818596 37.042450
v -29.046492 20.818596 37.042450
v -51.273426 0.190297 37.042450
v -29.046492 0.190297 37.042450
v -63.608643 0.190297 23.895205
v -51.290276 0.190297 38.947983
v -63.608643 20.818596 23.895205
v -51.290276 20.818596 38.947983
v -62.131432 20.818596 22.686335
v -49.813065 20.818596 37.739113
v -62.131432 0.190297 22.686335
v -49.813065 0.190297 37.739113
v -29.337244 17.932983 38.951248
v 29.195059 17.932983 38.951248
v -29.337244 20.845634 38.951248
v 29.195059 20.845634 38.951248
v -29.337244 20.845634 37.042450
v 29.195059 20.845634 37.042450
v -29.337244 17.932983 37.042450
v 29.195059 17.932983 37.042450
v 29.067194 0.190297 38.951248
v 51.294132 0.190297 38.951248
v 29.067194 20.818596 38.951248
v 51.294132 20.818596 38.951248
v 29.067194 20.818596 37.042450
v 51.294132 20.818596 37.042450
v 29.067194 0.190297 37.042450
v 51.294132 0.190297 37.042450
v 51.305084 0.190297 38.967049
v 63.623535 0.190297 23.914343
v 51.305084 20.818596 38.967049
v 63.623535 20.818596 23.914343
v 49.827881 20.818596 37.758171
v 62.146332 20.818596 22.705465
v 49.827881 0.190297 37.758171
v 62.146332 0.190297 22.705465
v 63.603661 0.190297 23.890615
v 63.603661 0.190297 -23.828854
v 63.603661 20.818596 23.890615
v 63.603661 20.818596 -23.828854
v 61.694862 20.818596 23.890615
v 61.694862 20.818596 -23.828854
v 61.694862 0.190297 23.890615
v 61.694862 0.190297 -23.828854
v 49.826042 0.190297 -37.664909
v 62.144402 0.190297 -22.612133
v 49.826042 20.818596 -37.664909
v 62.144402 20.818596 -22.612133
v 51.303253 20.818596 -38.873779
v 63.621613 20.818596 -23.821001
v 51.303253 0.190297 -38.873779
v 63.621613 0.190297 -23.821001
v -51.465267 0.190297 -37.057430
v 51.381947 0.190297 -37.057430
v -51.465267 20.818596 -37.057430
v 51.381947 20.818596 -37.057430
v -51.465267 20.818596 -38.966228
v 51.381947 20.818596 -38.966228
v -51.465267 0.190297 -38.966228
v 51.381947 0.190297 -38.966228
v -62.146420 0.190297 -22.623911
v -49.827965 0.190297 -37.676613
v -62.146420 20.818596 -22.623911
v -49.827965 20.818596 -37.676613
v -63.623627 20.818596 -23.832788
v -51.305172 20.818596 -38.885490
v -63.623627 0.190297 -23.832788
v -51.305172 0.190297 -38.885490
v -61.700275 0.190297 23.890615
v -61.700275 0.190297 -23.828854
v -61.700275 20.818596 23.890615
v -61.700275 20.818596 -23.828854
v -63.609074 20.818596 23.890615
v -63.609074 20.818596 -23.828854
v -63.609074 0.190297 23.890615
v -63.609074 0.190297 -23.828854
vt 0.499298 0.003884
vt 0.995940 0.003884
vt 0.995940 0.993735
vt 0.499298 0.993735
vt 0.251869 0.983973
vt 0.009647 0.982418
vt 0.010036 0.013646
vt 0.252258 0.015201
vt 0.999712 1.000129
vt -0.001319 0.998522
vt 0.000288 -0.002510
vt 1.001319 -0.000903
vt 0.375000 0.000000
vt 0.625000 0.000000
vt 0.625000 0.250000
vt 0.375000 0.250000
vt 0.625000 0.500000
vt 0.375000 0.500000
vt 0.625000 0.750000
vt 0.375000 0.750000
vt 0.625000 1.000000
vt 0.375000 1.000000
vt 0.875000 0.000000
vt 0.875000 0.250000
vt 0.125000 0.000000
vt 0.125000 0.250000
vt 0.375000 0.000000
vt 0.625000 0.000000
vt 0.625000 0.250000
vt 0.375000 0.250000
vt 0.625000 0.500000
vt 0.375000 0.500000
vt 0.625000 0.750000
vt 0.375000 0.750000
vt 0.625000 1.000000
vt 0.375000 1.000000
vt 0.875000 0.000000
vt 0.875000 0.250000
vt 0.125000 0.000000
vt 0.125000 0.250000
vt 0.375000 0.000000
vt 0.625000 0.000000
vt 0.625000 0.250000
vt 0.375000 0.250000
vt 0.625000 0.500000
vt 0.375000 0.500000
vt 0.625000 0.750000
vt 0.375000 0.750000
vt 0.625000 1.000000
vt 0.375000 1.000000
vt 0.875000 0.000000
vt 0.875000 0.250000
vt 0.125000 0.000000
vt 0.125000 0.250000
vt 0.375000 0.000000
vt 0.625000 0.000000
vt 0.625000 0.250000
vt 0.375000 0.250000
vt 0.625000 0.500000
vt 0.375000 0.500000
vt 0.625000 0.750000
vt 0.375000 0.750000
vt 0.625000 1.000000
vt 0.375000 1.000000
vt 0.875000 0.000000
vt 0.875000 0.250000
vt 0.125000 0.000000
vt 0.125000 0.250000
vt 0.375000 0.000000
vt 0.625000 0.000000
vt 0.625000 0.250000
vt 0.375000 0.250000
vt 0.625000 0.500000
vt 0.375000 0.500000
vt 0.625000 0.750000
vt 0.375000 0.750000
vt 0.625000 1.000000
vt 0.375000 1.000000
vt 0.875000 0.000000
vt 0.875000 0.250000
vt 0.125000 0.000000
vt 0.125000 0.250000
vt 0.375000 0.000000
vt 0.625000 0.000000
vt 0.625000 0.250000
vt 0.375000 0.250000
vt 0.625000 0.500000
vt 0.375000 0.500000
vt 0.625000 0.750000
vt 0.375000 0.750000
vt 0.625000 1.000000
vt 0.375000 1.000000
vt 0.875000 0.000000
vt 0.875000 0.250000
vt 0.125000 0.000000
vt 0.125000 0.250000
vt 0.375000 0.000000
vt 0.625000 0.000000
vt 0.625000 0.250000
vt 0.375000 0.250000
vt 0.625000 0.500000
vt 0.375000 0.500000
vt 0.625000 0.750000
vt 0.375000 0.750000
vt 0.625000 1.000000
vt 0.375000 1.000000
vt 0.875000 0.000000
vt 0.875000 0.250000
vt 0.125000 0.000000
vt 0.125000 0.250000
vt 0.375000 0.250000
vt 0.625000 0.250000
vt 0.625000 0.500000
vt 0.375000 0.500000
vt 0.625000 0.750000
vt 0.375000 0.750000
vt 0.625000 1.000000
vt 0.375000 1.000000
vt 0.625000 0.000000
vt 0.875000 0.000000
vt 0.875000 0.250000
vt 0.125000 0.000000
vt 0.375000 0.000000
vt 0.125000 0.250000
vt 0.000918 -0.001432
vt 0.996930 -0.004128
vt 0.999654 0.996670
vt 0.003642 0.999366
vt 0.375000 0.250000
vt 0.625000 0.250000
vt 0.625000 0.500000
vt 0.375000 0.500000
vt 0.625000 0.750000
vt 0.375000 0.750000
vt 0.625000 1.000000
vt 0.375000 1.000000
vt 0.625000 0.000000
vt 0.875000 0.000000
vt 0.875000 0.250000
vt 0.125000 0.000000
vt 0.375000 0.000000
vt 0.125000 0.250000
vt 0.375000 0.250000
vt 0.625000 0.250000
vt 0.625000 0.500000
vt 0.375000 0.500000
vt 0.625000 0.750000
vt 0.375000 0.750000
vt 0.625000 1.000000
vt 0.375000 1.000000
vt 0.625000 0.000000
vt 0.875000 0.000000
vt 0.875000 0.250000
vt 0.125000 0.000000
vt 0.375000 0.000000
vt 0.125000 0.250000
vt 0.375000 0.250000
vt 0.625000 0.250000
vt 0.625000 0.500000
vt 0.375000 0.500000
vt 0.625000 0.750000
vt 0.375000 0.750000
vt 0.625000 1.000000
vt 0.375000 1.000000
vt 0.625000 0.000000
vt 0.875000 0.000000
vt 0.875000 0.250000
vt 0.125000 0.000000
vt 0.375000 0.000000
vt 0.125000 0.250000
vn -0.773896 0.000000 0.633313
vn -0.773896 0.000000 0.633313
vn -0.773896 0.000000 0.633313
vn -0.773896 0.000000 0.633313
vn 0.773892 0.000000 0.633318
vn 0.773892 0.000000 0.633318
vn 0.773892 0.000000 0.633318
vn 0.773892 0.000000 0.633318
vn 1.000000 0.000000 0.000000
vn 1.000000 0.000000 0.000000
vn 1.000000 0.000000 0.000000
vn 1.000000 0.000000 0.000000
vn 0.000000 0.000000 1.000000
vn 0.000000 0.000000 1.000000
vn 0.000000 0.000000 1.000000
vn 0.000000 0.000000 1.000000
vn 0.000000 1.000000 0.000000
vn 0.000000 1.000000 0.000000
vn 0.000000 1.000000 0.000000
vn 0.000000 1.000000 0.000000
vn 0.000000 0.000000 -1.000000
vn 0.000000 0.000000 -1.000000
vn 0.000000 0.000000 -1.000000
vn 0.000000 0.000000 -1.000000
vn 0.000000 -1.000000 0.000000
vn 0.000000 -1.000000 0.000000
vn 0.000000 -1.000000 0.000000
vn 0.000000 -1.000000 0.000000
vn 1.000000 0.000000 0.000000
vn 1.000000 0.000000 0.000000
vn 1.000000 0.000000 0.000000
vn 1.000000 0.000000 0.000000
vn -1.000000 0.000000 0.000000
vn -1.000000 0.000000 0.000000
vn -1.000000 0.000000 0.000000
vn -1.000000 0.000000 0.000000
vn 0.000000 0.000000 1.000000
vn 0.000000 0.000000 1.000000
vn 0.000000 0.000000 1.000000
vn 0.000000 0.000000 1.000000
vn 0.000000 1.000000 0.000000
vn 0.000000 1.000000 0.000000
vn 0.000000 1.000000 0.000000
vn 0.000000 1.000000 0.000000
vn 0.000000 0.000000 -1.000000
vn 0.000000 0.000000 -1.000000
vn 0.000000 0.000000 -1.000000
vn 0.000000 0.000000 -1.000000
vn 0.000000 -1.000000 0.000000
vn 0.000000 -1.000000 0.000000
vn 0.000000 -1.000000 0.000000
vn 0.000000 -1.000000 0.000000
vn 1.000000 0.000000 0.000000
vn 1.000000 0.000000 0.000000
vn 1.000000 0.000000 0.000000
vn 1.000000 0.000000 0.000000
vn -1.000000 0.000000 0.000000
vn -1.000000 0.000000 0.000000
vn -1.000000 0.000000 0.000000
vn -1.000000 0.000000 0.000000
vn -0.773895 0.000000 0.633314
vn -0.773895 0.000000 0.633314
vn -0.773895 0.000000 0.633314
vn -0.773895 0.000000 0.633314
vn 0.000000 1.000000 0.000000
vn 0.000000 1.000000 0.000000
vn 0.000000 1.000000 0.000000
vn 0.000000 1.000000 0.000000
vn 0.773895 0.000000 -0.633314
vn 0.773895 0.000000 -0.633314
vn 0.773895 0.000000 -0.633314
vn 0.773895 0.000000 -0.633314
vn 0.000000 -1.000000 0.000000
vn 0.000000 -1.000000 0.000000
vn 0.000000 -1.000000 0.000000
vn 0.000000 -1.000000 0.000000
vn 0.633314 0.000000 0.773895
vn 0.633314 0.000000 0.773895
vn 0.633314 0.000000 0.773895
vn 0.633314 0.000000 0.773895
vn -0.633314 0.000000 -0.773895
vn -0.633314 0.000000 -0.773895
vn -0.633314 0.000000 -0.773895
vn -0.633314 0.000000 -0.773895
vn 0.000000 0.000000 1.000000
vn 0.000000 0.000000 1.000000
vn 0.000000 0.000000 1.000000
vn 0.000000 0.000000 1.000000
vn 0.000000 1.000000 0.000000
vn 0.000000 1.000000 0.000000
vn 0.000000 1.000000 0.000000
vn 0.000000 1.000000 0.000000
vn 0.000000 0.000000 -1.000000
vn 0.000000 0.000000 -1.000000
vn 0.000000 0.000000 -1.000000
vn 0.000000 0.000000 -1.000000
vn 0.000000 -1.000000 0.000000
vn 0.000000 -1.000000 0.000000
vn 0.000000 -1.000000 0.000000
vn 0.000000 -1.000000 0.000000
vn 1.000000 0.000000 0.000000
vn 1.000000 0.000000 0.000000
vn 1.000000 0.000000 0.000000
vn 1.000000 0.000000 0.000000
vn -1.000000 0.000000 0.000000
vn -1.000000 0.000000 0.000000
vn -1.000000 0.000000 0.000000
vn -1.000000 0.000000 0.000000
vn 0.000000 0.000000 1.000000
vn 0.000000 0.000000 1.000000
vn 0.000000 0.000000 1.000000
vn 0.000000 0.000000 1.000000
vn 0.000000 1.000000 0.000000
vn 0.000000 1.000000 0.000000
vn 0.000000 1.000000 0.000000
vn 0.000000 1.000000 0.000000
vn 0.000000 0.000000 -1.000000
vn 0.000000 0.000000 -1.000000
vn 0.000000 0.000000 -1.000000
vn 0.000000 0.000000 -1.000000
vn 0.000000 -1.000000 0.000000
vn 0.000000 -1.000000 0.000000
vn 0.000000 -1.000000 0.000000
vn 0.000000 -1.000000 0.000000
vn 1.000000 0.000000 0.000000
vn 1.000000 0.000000 0.000000
vn 1.000000 0.000000 0.000000
vn 1.000000 0.000000 0.000000
vn -1.000000 0.000000 0.000000
vn -1.000000 0.000000 0.000000
vn -1.000000 0.000000 0.000000
vn -1.000000 0.000000 0.000000
vn 0.773892 0.000000 0.633318
vn 0.773892 0.000000 0.633318
vn 0.773892 0.000000 0.633318
vn 0.773892 0.000000 0.633318
vn 0.000000 1.000000 -0.000000
vn 0.000000 1.000000 -0.000000
vn 0.000000 1.000000 -0.000000
vn 0.000000 1.000000 -0.000000
vn -0.773892 0.000000 -0.633318
vn -0.773892 0.000000 -0.633318
vn -0.773892 0.000000 -0.633318
vn -0.773892 0.000000 -0.633318
vn 0.000000 -1.000000 0.000000
vn 0.000000 -1.000000 0.000000
vn 0.000000 -1.000000 0.000000
vn 0.000000 -1.000000 0.000000
vn 0.633318 0.000000 -0.773892
vn 0.633318 0.000000 -0.773892
vn 0.633318 0.000000 -0.773892
vn 0.633318 0.000000 -0.773892
vn -0.633319 0.000000 0.773891
vn -0.633319 0.000000 0.773891
vn -0.633319 0.000000 0.773891
vn -0.633319 0.000000 0.773891
vn 1.000000 0.000000 0.000000
vn 1.000000 0.000000 0.000000
vn 1.000000 0.000000 0.000000
vn 1.000000 0.000000 0.000000
vn 0.000000 1.000000 0.000000
vn 0.000000 1.000000 0.000000
vn 0.000000 1.000000 0.000000
vn 0.000000 1.000000 0.000000
vn -1.000000 0.000000 0.000000
vn -1.000000 0.000000 0.000000
vn -1.000000 0.000000 0.000000
vn -1.000000 0.000000 0.000000
vn 0.000000 -1.000000 0.000000
vn 0.000000 -1.000000 0.000000
vn 0.000000 -1.000000 0.000000
vn 0.000000 -1.000000 0.000000
vn 0.000000 0.000000 -1.000000
vn 0.000000 0.000000 -1.000000
vn 0.000000 0.000000 -1.000000
vn 0.000000 0.000000 -1.000000
vn 0.000000 0.000000 1.000000
vn 0.000000 0.000000 1.000000
vn 0.000000 0.000000 1.000000
vn 0.000000 0.000000 1.000000
vn 0.000000 1.000000 0.000000
vn 0.000000 1.000000 0.000000
vn 0.000000 1.000000 0.000000
vn 0.000000 1.000000 0.000000
vn 0.773896 0.000000 -0.633313
vn 0.773896 0.000000 -0.633313
vn 0.773896 0.000000 -0.633313
vn 0.773896 0.000000 -0.633313
vn 0.000000 -1.000000 0.000000
vn 0.000000 -1.000000 0.000000
vn 0.000000 -1.000000 0.000000
vn 0.000000 -1.000000 0.000000
vn 0.633313 0.000000 0.773895
vn 0.633313 0.000000 0.773895
vn 0.633313 0.000000 0.773895
vn 0.633313 0.000000 0.773895
vn -0.633314 0.000000 -0.773895
vn -0.633314 0.000000 -0.773895
vn -0.633314 0.000000 -0.773895
vn -0.633314 0.000000 -0.773895
vn 0.000000 0.000000 1.000000
vn 0.000000 0.000000 1.000000
vn 0.000000 0.000000 1.000000
vn 0.000000 0.000000 1.000000
vn 0.000000 1.000000 0.000000
vn 0.000000 1.000000 0.000000
vn 0.000000 1.000000 0.000000
vn 0.000000 1.000000 0.000000
vn 0.000000 0.000000 -1.000000
vn 0.000000 0.000000 -1.000000
vn 0.000000 0.000000 -1.000000
vn 0.000000 0.000000 -1.000000
vn 0.000000 -1.000000 0.000000
vn 0.000000 -1.000000 0.000000
vn 0.000000 -1.000000 0.000000
vn 0.000000 -1.000000 0.000000
vn 1.000000 0.000000 0.000000
vn 1.000000 0.000000 0.000000
vn 1.000000 0.000000 0.000000
vn 1.000000 0.000000 0.000000
vn -1.000000 0.000000 0.000000
vn -1.000000 0.000000 0.000000
vn -1.000000 0.000000 0.000000
vn -1.000000 0.000000 0.000000
vn 0.000000 1.000000 0.000000
vn 0.000000 1.000000 0.000000
vn 0.000000 1.000000 0.000000
vn 0.000000 1.000000 0.000000
vn -0.773892 0.000000 -0.633318
vn -0.773892 0.000000 -0.633318
vn -0.773892 0.000000 -0.633318
vn -0.773892 0.000000 -0.633318
vn 0.000000 -1.000000 -0.000000
vn 0.000000 -1.000000 -0.000000
vn 0.000000 -1.000000 -0.000000
vn 0.000000 -1.000000 -0.000000
vn 0.633317 0.000000 -0.773892
vn 0.633317 0.000000 -0.773892
vn 0.633317 0.000000 -0.773892
vn 0.633317 0.000000 -0.773892
vn -0.633318 0.000000 0.773892
vn -0.633318 0.000000 0.773892
vn -0.633318 0.000000 0.773892
vn -0.633318 0.000000 0.773892
vn 0.000000 1.000000 0.000000
vn 0.000000 1.000000 0.000000
vn 0.000000 1.000000 0.000000
vn 0.000000 1.000000 0.000000
vn -1.000000 0.000000 0.000000
vn -1.000000 0.000000 0.000000
vn -1.000000 0.000000 0.000000
vn -1.000000 0.000000 0.000000
vn 0.000000 -1.000000 0.000000
vn 0.000000 -1.000000 0.000000
vn 0.000000 -1.000000 0.000000
vn 0.000000 -1.000000 0.000000
vn 0.000000 0.000000 -1.000000
vn 0.000000 0.000000 -1.000000
vn 0.000000 0.000000 -1.000000
vn 0.000000 0.000000 -1.000000
vn 0.000000 0.000000 1.000000
vn 0.000000 0.000000 1.000000
vn 0.000000 0.000000 1.000000
vn 0.000000 0.000000 1.000000
s off
g polySurface6
usemtl lambert5SG
f 1/1/1 2/2/2 3/3/3 4/4/4
f 5/5/5 6/6/6 7/7/7 8/8/8
f 9/9/9 10/10/10 11/11/11 12/12/12
usemtl lambert2SG
f 13/13/13 14/14/14 16/15/15 15/16/16
f 15/16/17 16/15/18 18/17/19 17/18/20
f 17/18/21 18/17/22 20/19/23 19/20/24
f 19/20/25 20/19/26 14/21/27 13/22/28
f 14/14/29 20/23/30 18/24/31 16/15/32
f 19/25/33 13/13/34 15/16/35 17/26/36
f 21/27/37 22/28/38 24/29/39 23/30/40
f 23/30/41 24/29/42 26/31/43 25/32/44
usemtl lambert5SG
f 25/32/45 26/31/46 28/33/47 27/34/48
usemtl initialShadingGroup
f 27/34/49 28/33/50 22/35/51 21/36/52
usemtl lambert2SG
f 22/28/53 28/37/54 26/38/55 24/29/56
usemtl initialShadingGroup
f 27/39/57 21/27/58 23/30/59 25/40/60
usemtl lambert2SG
f 29/41/61 30/42/62 32/43/63 31/44/64
f 31/44/65 32/43/66 34/45/67 33/46/68
usemtl lambert5SG
f 33/46/69 34/45/70 36/47/71 35/48/72
usemtl initialShadingGroup
f 35/48/73 36/47/74 30/49/75 29/50/76
f 30/42/77 36/51/78 34/52/79 32/43/80
f 35/53/81 29/41/82 31/44/83 33/54/84
usemtl lambert2SG
f 37/55/85 38/56/86 40/57/87 39/58/88
f 39/58/89 40/57/90 42/59/91 41/60/92
f 41/60/93 42/59/94 44/61/95 43/62/96
f 43/62/97 44/61/98 38/63/99 37/64/100
usemtl initialShadingGroup
f 38/56/101 44/65/102 42/66/103 40/57/104
f 43/67/105 37/55/106 39/58/107 41/68/108
usemtl lambert2SG
f 45/69/109 46/70/110 48/71/111 47/72/112
f 47/72/113 48/71/114 50/73/115 49/74/116
usemtl lambert5SG
f 49/74/117 50/73/118 52/75/119 51/76/120
usemtl initialShadingGroup
f 51/76/121 52/75/122 46/77/123 45/78/124
f 46/70/125 52/79/126 50/80/127 48/71/128
usemtl lambert2SG
f 51/81/129 45/69/130 47/72/131 49/82/132
f 53/83/133 54/84/134 56/85/135 55/86/136
f 55/86/137 56/85/138 58/87/139 57/88/140
usemtl lambert5SG
f 57/88/141 58/87/142 60/89/143 59/90/144
usemtl initialShadingGroup
f 59/90/145 60/89/146 54/91/147 53/92/148
f 54/84/149 60/93/150 58/94/151 56/85/152
f 59/95/153 53/83/154 55/86/155 57/96/156
usemtl lambert2SG
f 61/97/157 62/98/158 64/99/159 63/100/160
f 63/100/161 64/99/162 66/101/163 65/102/164
usemtl lambert5SG
f 65/102/165 66/101/166 68/103/167 67/104/168
usemtl initialShadingGroup
f 67/104/169 68/103/170 62/105/171 61/106/172
f 62/98/173 68/107/174 66/108/175 64/99/176
f 67/109/177 61/97/178 63/100/179 65/110/180
usemtl lambert2SG
f 71/111/181 72/112/182 74/113/183 73/114/184
f 73/114/185 74/113/186 76/115/187 75/116/188
usemtl initialShadingGroup
f 75/116/189 76/115/190 70/117/191 69/118/192
f 70/119/193 76/120/194 74/121/195 72/112/196
f 75/122/197 69/123/198 71/111/199 73/124/200
usemtl lambert5SG
f 77/125/201 78/126/202 80/127/203 79/128/204
usemtl lambert2SG
f 79/129/205 80/130/206 82/131/207 81/132/208
f 81/132/209 82/131/210 84/133/211 83/134/212
usemtl initialShadingGroup
f 83/134/213 84/133/214 78/135/215 77/136/216
f 78/137/217 84/138/218 82/139/219 80/130/220
f 83/140/221 77/141/222 79/129/223 81/142/224
usemtl lambert2SG
f 87/143/225 88/144/226 90/145/227 89/146/228
f 89/146/229 90/145/230 92/147/231 91/148/232
usemtl initialShadingGroup
f 91/148/233 92/147/234 86/149/235 85/150/236
f 86/151/237 92/152/238 90/153/239 88/144/240
f 91/154/241 85/155/242 87/143/243 89/156/244
usemtl lambert2SG
f 95/157/245 96/158/246 98/159/247 97/160/248
f 97/160/249 98/159/250 100/161/251 99/162/252
usemtl initialShadingGroup
f 99/162/253 100/161/254 94/163/255 93/164/256
f 94/165/257 100/166/258 98/167/259 96/158/260
f 99/168/261 93/169/262 95/157/263 97/170/264
