# 3ds Max Wavefront OBJ Exporter v0.99 - (c)2007 guruware
# File Created: 23.11.2022 23:11:01

mtllib cristal_tiburones.mtl

#
# object Plane001
#

v  -54.3773 -14.0789 25.7353
v  -54.3773 -28.3389 25.7353
v  -37.3798 -28.3389 7.2861
v  -37.3798 -14.0789 7.2861
v  -5.4348 -28.3389 -0.0000
v  -5.4348 -14.0789 -0.0000
v  26.5102 -28.3389 7.2861
v  26.5102 -14.0789 7.2861
v  43.5078 -28.3389 25.7353
v  43.5078 -14.0789 25.7353
v  -54.3773 0.1812 25.7353
v  -37.3798 0.1812 7.2861
v  -5.4348 0.1812 0.0000
v  26.5102 0.1812 7.2861
v  43.5078 0.1812 25.7353
v  -54.3773 14.4412 25.7353
v  -37.3798 14.4412 7.2861
v  -5.4348 14.4412 0.0000
v  26.5102 14.4412 7.2861
v  43.5078 14.4412 25.7353
v  -54.3773 28.7012 25.7353
v  -37.3798 28.7012 7.2862
v  -5.4348 28.7012 0.0000
v  26.5102 28.7012 7.2862
v  43.5078 28.7012 25.7353
# 25 vertices

vn 0.8660 -0.0000 0.5000
vn 0.6428 -0.0000 0.7660
vn -0.0000 -0.0000 1.0000
vn -0.6428 -0.0000 0.7660
vn -0.8660 -0.0000 0.5000
# 5 vertex normals

vt 0.0000 0.2500 0.0000
vt 0.0000 0.0000 0.0000
vt 0.2500 0.0000 0.0000
vt 0.2500 0.2500 0.0000
vt 0.5000 0.0000 0.0000
vt 0.5000 0.2500 0.0000
vt 0.7500 0.0000 0.0000
vt 0.7500 0.2500 0.0000
vt 1.0000 0.0000 0.0000
vt 1.0000 0.2500 0.0000
vt 0.0000 0.5000 0.0000
vt 0.2500 0.5000 0.0000
vt 0.5000 0.5000 0.0000
vt 0.7500 0.5000 0.0000
vt 1.0000 0.5000 0.0000
vt 0.0000 0.7500 0.0000
vt 0.2500 0.7500 0.0000
vt 0.5000 0.7500 0.0000
vt 0.7500 0.7500 0.0000
vt 1.0000 0.7500 0.0000
vt 0.0000 1.0000 0.0000
vt 0.2500 1.0000 0.0000
vt 0.5000 1.0000 0.0000
vt 0.7500 1.0000 0.0000
vt 1.0000 1.0000 0.0000
# 25 texture coords

o Plane001
g Plane001
usemtl wire_006135113
s 1
f 1/1/1 2/2/1 3/3/2 4/4/2 
f 4/4/2 3/3/2 5/5/3 6/6/3 
f 6/6/3 5/5/3 7/7/4 8/8/4 
f 8/8/4 7/7/4 9/9/5 10/10/5 
f 11/11/1 1/1/1 4/4/2 12/12/2 
f 12/12/2 4/4/2 6/6/3 13/13/3 
f 13/13/3 6/6/3 8/8/4 14/14/4 
f 14/14/4 8/8/4 10/10/5 15/15/5 
f 16/16/1 11/11/1 12/12/2 17/17/2 
f 17/17/2 12/12/2 13/13/3 18/18/3 
f 18/18/3 13/13/3 14/14/4 19/19/4 
f 19/19/4 14/14/4 15/15/5 20/20/5 
f 21/21/1 16/16/1 17/17/2 22/22/2 
f 22/22/2 17/17/2 18/18/3 23/23/3 
f 23/23/3 18/18/3 19/19/4 24/24/4 
f 24/24/4 19/19/4 20/20/5 25/25/5 
# 16 polygons

