# This file uses centimeters as units for non-parametric coordinates.

mtllib area_tortugas.mtl
g default
v -338.725259 -0.085270 5.762907
v -336.833734 -0.085270 4.031966
v -336.833734 20.807012 4.031966
v -356.179656 20.807012 -10.209804
v -354.288148 20.807012 -11.940749
v -356.179656 -0.085270 -10.209804
v -354.288148 -0.085270 -11.940749
v -356.180264 -0.085270 -10.185373
v -353.505262 -0.085270 -10.185373
v -356.180264 20.807012 -10.185373
v -353.505262 20.807012 -10.185373
v -356.180264 20.807012 -34.631676
v -353.505262 20.807012 -34.631676
v -356.180264 -0.085270 -34.631676
v -353.505262 -0.085270 -34.631676
v -356.173540 -0.085270 -34.642147
v -354.181875 -0.085270 -33.007994
v -356.173540 20.807012 -34.642147
v -354.181875 20.807012 -33.007994
v -334.789193 20.807012 -56.467841
v -332.797529 20.807012 -54.833688
v -334.789193 -0.085270 -56.467841
v -332.797529 -0.085270 -54.833688
v -335.155224 -0.085270 -56.329489
v -334.529036 -0.085270 -53.949582
v -335.155224 20.807012 -56.329489
v -334.529036 20.807012 -53.949582
v -298.089673 20.807012 -64.496414
v -297.463485 20.807012 -62.116499
v -298.089673 -0.085270 -64.496414
v -297.463485 -0.085270 -62.116499
v -242.751391 -0.085270 -31.102547
v -241.374350 -0.085270 -33.201205
v -242.751391 20.807012 -31.102547
v -241.374350 20.807012 -33.201205
v -299.797740 20.807012 -62.448420
v -298.420690 20.807012 -64.547075
v -299.797740 -0.085270 -62.448420
v -298.420690 -0.085270 -64.547075
v -256.143450 -0.085270 -11.122297
v -253.733913 -0.085270 -10.059137
v -256.143450 20.807012 -11.122297
v -253.733913 20.807012 -10.059137
v -244.541265 20.807012 -33.142621
v -242.131728 20.807012 -32.079460
v -244.541265 -0.085270 -33.142621
v -242.131728 -0.085270 -32.079460
v -254.954385 -0.045852 -8.115162
v -253.626006 -0.045852 -10.239915
v -254.954385 20.846429 -8.115162
v -253.626006 20.846429 -10.239915
v -278.141699 20.846429 -20.255087
v -276.813294 20.846429 -22.379840
v -278.141699 -0.045852 -20.255087
v -276.813294 -0.045852 -22.379840
v -339.144252 -0.085270 2.658207
v -337.252744 -0.085270 4.389148
v -339.144252 20.807012 2.658207
v -337.252744 20.807012 4.389148
v -326.711431 20.807012 -8.719211
v -324.819924 20.807012 -6.988267
v -326.711431 -0.085270 -8.719211
v -324.819924 -0.085270 -6.988267
v -338.850472 -0.143060 5.934834
v -336.948521 -0.143060 4.194327
v -336.948521 20.864658 4.194327
v -338.850472 20.864658 5.934834
v -354.499356 20.864658 -11.866643
v -356.401307 20.864658 -10.126134
v -356.401307 -0.143060 -10.126134
v -356.401933 -0.143060 -10.101568
v -356.401933 -0.143060 -34.682945
v -356.401933 20.864658 -10.101568
v -356.401933 20.864658 -34.682945
v -354.392493 20.864658 -33.050295
v -356.395174 20.864658 -34.693480
v -332.890005 20.864658 -54.996584
v -334.892669 20.864658 -56.639769
v -356.395174 -0.143060 -34.693480
v -334.892669 -0.143060 -56.639769
v -327.485004 18.001588 -7.825243
v -326.682934 18.001588 -5.475775
v -326.682934 20.890201 -5.475775
v -327.485004 20.890201 -7.825243
v -275.724994 20.890201 -20.043791
v -276.527055 20.890201 -22.393260
v -275.724994 18.001588 -20.043791
v -276.527055 18.001588 -22.393260
v -327.485004 -0.107629 -7.825243
v -326.682934 -0.107629 -5.475775
v -326.682934 2.780986 -5.475775
v -327.485004 2.780986 -7.825243
v -275.724994 2.780986 -20.043791
v -276.527055 2.780986 -22.393260
v -275.724994 -0.107629 -20.043791
v -276.527055 -0.107629 -22.393260
v -337.369825 20.864658 4.553485
v -339.271776 20.864658 2.812979
v -324.868299 20.864658 -6.886797
v -326.770267 20.864658 -8.627306
v -324.868299 -0.143060 -6.886797
v -337.369825 -0.143060 4.553485
vt 0.375000 0.000000
vt 0.625000 0.000000
vt 0.625000 0.250000
vt 0.375000 0.250000
vt 0.625000 0.500000
vt 0.375000 0.500000
vt 0.375000 0.500000
vt 0.625000 0.500000
vt 0.625000 0.750000
vt 0.375000 0.750000
vt 0.625000 1.000000
vt 0.375000 1.000000
vt 0.625000 0.000000
vt 0.875000 0.000000
vt 0.875000 0.250000
vt 0.625000 0.250000
vt 0.125000 0.000000
vt 0.125000 0.250000
vt 0.375000 0.000000
vt 0.625000 0.000000
vt 0.625000 0.250000
vt 0.375000 0.250000
vt 0.625000 0.500000
vt 0.375000 0.500000
vt 0.625000 0.750000
vt 0.375000 0.750000
vt 0.625000 1.000000
vt 0.375000 1.000000
vt 0.875000 0.000000
vt 0.875000 0.250000
vt 0.125000 0.000000
vt 0.375000 0.000000
vt 0.375000 0.250000
vt 0.125000 0.250000
vt 0.375000 0.000000
vt 0.625000 0.000000
vt 0.625000 0.250000
vt 0.375000 0.250000
vt 0.375000 0.250000
vt 0.625000 0.250000
vt 0.625000 0.500000
vt 0.375000 0.500000
vt 0.375000 0.500000
vt 0.625000 0.500000
vt 0.625000 0.750000
vt 0.375000 0.750000
vt 0.625000 1.000000
vt 0.375000 1.000000
vt 0.875000 0.000000
vt 0.875000 0.250000
vt 0.125000 0.000000
vt 0.375000 0.000000
vt 0.125000 0.250000
vt 0.375000 0.000000
vt 0.625000 0.000000
vt 0.625000 0.250000
vt 0.375000 0.250000
vt 0.625000 0.500000
vt 0.375000 0.500000
vt 0.625000 0.750000
vt 0.375000 0.750000
vt 0.625000 1.000000
vt 0.375000 1.000000
vt 0.875000 0.000000
vt 0.875000 0.250000
vt 0.125000 0.000000
vt 0.125000 0.250000
vt 0.375000 0.000000
vt 0.625000 0.000000
vt 0.625000 0.250000
vt 0.375000 0.250000
vt 0.625000 0.500000
vt 0.375000 0.500000
vt 0.625000 0.750000
vt 0.375000 0.750000
vt 0.625000 1.000000
vt 0.375000 1.000000
vt 0.875000 0.000000
vt 0.875000 0.250000
vt 0.125000 0.000000
vt 0.125000 0.250000
vt 0.375000 0.000000
vt 0.625000 0.000000
vt 0.625000 0.250000
vt 0.375000 0.250000
vt 0.625000 0.500000
vt 0.375000 0.500000
vt 0.625000 0.750000
vt 0.375000 0.750000
vt 0.625000 1.000000
vt 0.375000 1.000000
vt 0.875000 0.000000
vt 0.875000 0.250000
vt 0.125000 0.000000
vt 0.125000 0.250000
vt 0.375000 0.000000
vt 0.625000 0.000000
vt 0.625000 0.250000
vt 0.375000 0.250000
vt 0.625000 0.500000
vt 0.375000 0.500000
vt 0.625000 0.750000
vt 0.375000 0.750000
vt 0.625000 1.000000
vt 0.375000 1.000000
vt 0.875000 0.000000
vt 0.875000 0.250000
vt 0.125000 0.000000
vt 0.125000 0.250000
vt 0.375000 0.000000
vt 0.625000 0.000000
vt 0.625000 0.250000
vt 0.375000 0.250000
vt 0.625000 0.500000
vt 0.375000 0.500000
vt 0.625000 0.750000
vt 0.375000 0.750000
vt 0.625000 1.000000
vt 0.375000 1.000000
vt 0.875000 0.000000
vt 0.875000 0.250000
vt 0.125000 0.000000
vt 0.125000 0.250000
vt 0.375000 0.000000
vt 0.625000 0.000000
vt 0.625000 0.250000
vt 0.375000 0.250000
vt 0.625000 0.500000
vt 0.375000 0.500000
vt 0.625000 0.750000
vt 0.375000 0.750000
vt 0.625000 1.000000
vt 0.375000 1.000000
vt 0.875000 0.000000
vt 0.875000 0.250000
vt 0.125000 0.000000
vt 0.125000 0.250000
vt 0.375000 0.000000
vt 0.625000 0.000000
vt 0.625000 0.250000
vt 0.375000 0.250000
vt 0.375000 0.250000
vt 0.625000 0.250000
vt 0.625000 0.500000
vt 0.375000 0.500000
vt 0.375000 0.500000
vt 0.625000 0.500000
vt 0.625000 0.750000
vt 0.375000 0.750000
vt 0.625000 1.000000
vt 0.375000 1.000000
vt 0.625000 0.000000
vt 0.875000 0.000000
vt 0.875000 0.250000
vt 0.125000 0.000000
vt 0.125000 0.250000
vt 0.375000 0.000000
vt 0.125000 0.000000
vt 0.125000 0.250000
vt 0.125000 0.000000
vt 0.125000 0.250000
vt 0.125000 0.000000
vt 0.125000 0.250000
vt 0.875000 0.000000
vt 0.875000 0.250000
vn 0.675101 0.000000 0.737726
vn 0.675101 0.000000 0.737726
vn 0.675101 0.000000 0.737726
vn 0.675101 0.000000 0.737726
vn 0.000000 1.000000 0.000000
vn 0.000000 1.000000 0.000000
vn 0.000000 1.000000 0.000000
vn 0.000000 1.000000 0.000000
vn -0.675101 0.000000 -0.737726
vn -0.675101 0.000000 -0.737726
vn -0.675101 0.000000 -0.737726
vn -0.675101 0.000000 -0.737726
vn 0.000000 -1.000000 0.000000
vn 0.000000 -1.000000 0.000000
vn 0.000000 -1.000000 0.000000
vn 0.000000 -1.000000 0.000000
vn 0.675101 0.000000 -0.737726
vn 0.675101 0.000000 -0.737726
vn 0.675101 0.000000 -0.737726
vn 0.675101 0.000000 -0.737726
vn -0.675101 0.000000 0.737726
vn -0.675101 0.000000 0.737726
vn -0.675101 0.000000 0.737726
vn -0.675101 0.000000 0.737726
vn 0.000000 0.000000 1.000000
vn 0.000000 0.000000 1.000000
vn 0.000000 0.000000 1.000000
vn 0.000000 0.000000 1.000000
vn 0.000000 1.000000 0.000000
vn 0.000000 1.000000 0.000000
vn 0.000000 1.000000 0.000000
vn 0.000000 1.000000 0.000000
vn 0.000000 0.000000 -1.000000
vn 0.000000 0.000000 -1.000000
vn 0.000000 0.000000 -1.000000
vn 0.000000 0.000000 -1.000000
vn 0.000000 -1.000000 0.000000
vn 0.000000 -1.000000 0.000000
vn 0.000000 -1.000000 0.000000
vn 0.000000 -1.000000 0.000000
vn 1.000000 0.000000 0.000000
vn 1.000000 0.000000 0.000000
vn 1.000000 0.000000 0.000000
vn 1.000000 0.000000 0.000000
vn -1.000000 0.000000 0.000000
vn -1.000000 0.000000 0.000000
vn -1.000000 0.000000 0.000000
vn -1.000000 0.000000 0.000000
vn -0.634309 0.000000 0.773079
vn -0.634309 0.000000 0.773079
vn -0.634309 0.000000 0.773079
vn -0.634309 0.000000 0.773079
vn 0.000000 1.000000 0.000000
vn 0.000000 1.000000 0.000000
vn 0.000000 1.000000 0.000000
vn 0.000000 1.000000 0.000000
vn 0.634308 0.000000 -0.773080
vn 0.634308 0.000000 -0.773080
vn 0.634308 0.000000 -0.773080
vn 0.634308 0.000000 -0.773080
vn 0.000000 -1.000000 0.000000
vn 0.000000 -1.000000 0.000000
vn 0.000000 -1.000000 0.000000
vn 0.000000 -1.000000 0.000000
vn 0.714292 0.000000 0.699848
vn 0.714292 0.000000 0.699848
vn 0.714292 0.000000 0.699848
vn 0.714292 0.000000 0.699848
vn -0.714292 0.000000 -0.699848
vn -0.714292 0.000000 -0.699848
vn -0.714292 0.000000 -0.699848
vn -0.714292 0.000000 -0.699848
vn -0.967084 0.000000 0.254456
vn -0.967084 0.000000 0.254456
vn -0.967084 0.000000 0.254456
vn -0.967084 0.000000 0.254456
vn 0.000000 1.000000 0.000000
vn 0.000000 1.000000 0.000000
vn 0.000000 1.000000 0.000000
vn 0.000000 1.000000 0.000000
vn 0.967085 0.000000 -0.254452
vn 0.967085 0.000000 -0.254452
vn 0.967085 0.000000 -0.254452
vn 0.967085 0.000000 -0.254452
vn 0.000000 -1.000000 0.000000
vn 0.000000 -1.000000 0.000000
vn 0.000000 -1.000000 0.000000
vn 0.000000 -1.000000 0.000000
vn 0.215176 0.000000 0.976575
vn 0.215176 0.000000 0.976575
vn 0.215176 0.000000 0.976575
vn 0.215176 0.000000 0.976575
vn -0.215176 0.000000 -0.976575
vn -0.215176 0.000000 -0.976575
vn -0.215176 0.000000 -0.976575
vn -0.215176 0.000000 -0.976575
vn 0.836084 0.000000 0.548601
vn 0.836084 0.000000 0.548601
vn 0.836084 0.000000 0.548601
vn 0.836084 0.000000 0.548601
vn 0.000000 1.000000 0.000000
vn 0.000000 1.000000 0.000000
vn 0.000000 1.000000 0.000000
vn 0.000000 1.000000 0.000000
vn -0.836085 0.000000 -0.548599
vn -0.836085 0.000000 -0.548599
vn -0.836085 0.000000 -0.548599
vn -0.836085 0.000000 -0.548599
vn 0.000000 -1.000000 0.000000
vn 0.000000 -1.000000 0.000000
vn 0.000000 -1.000000 0.000000
vn 0.000000 -1.000000 0.000000
vn 0.481569 0.000000 -0.876408
vn 0.481569 0.000000 -0.876408
vn 0.481569 0.000000 -0.876408
vn 0.481569 0.000000 -0.876408
vn -0.481569 0.000000 0.876408
vn -0.481569 0.000000 0.876408
vn -0.481569 0.000000 0.876408
vn -0.481569 0.000000 0.876408
vn -0.403680 0.000000 0.914900
vn -0.403680 0.000000 0.914900
vn -0.403680 0.000000 0.914900
vn -0.403680 0.000000 0.914900
vn 0.000000 1.000000 0.000000
vn 0.000000 1.000000 0.000000
vn 0.000000 1.000000 0.000000
vn 0.000000 1.000000 0.000000
vn 0.403680 0.000000 -0.914900
vn 0.403680 0.000000 -0.914900
vn 0.403680 0.000000 -0.914900
vn 0.403680 0.000000 -0.914900
vn 0.000000 -1.000000 0.000000
vn 0.000000 -1.000000 0.000000
vn 0.000000 -1.000000 0.000000
vn 0.000000 -1.000000 0.000000
vn 0.884710 0.000000 0.466141
vn 0.884710 0.000000 0.466141
vn 0.884710 0.000000 0.466141
vn 0.884710 0.000000 0.466141
vn -0.884710 0.000000 -0.466141
vn -0.884710 0.000000 -0.466141
vn -0.884710 0.000000 -0.466141
vn -0.884710 0.000000 -0.466141
vn 0.847924 0.000000 0.530118
vn 0.847924 0.000000 0.530118
vn 0.847924 0.000000 0.530118
vn 0.847924 0.000000 0.530118
vn 0.000000 1.000000 0.000000
vn 0.000000 1.000000 0.000000
vn 0.000000 1.000000 0.000000
vn 0.000000 1.000000 0.000000
vn -0.847922 0.000000 -0.530121
vn -0.847922 0.000000 -0.530121
vn -0.847922 0.000000 -0.530121
vn -0.847922 0.000000 -0.530121
vn 0.000000 -1.000000 0.000000
vn 0.000000 -1.000000 0.000000
vn 0.000000 -1.000000 0.000000
vn 0.000000 -1.000000 0.000000
vn 0.463833 0.000000 -0.885922
vn 0.463833 0.000000 -0.885922
vn 0.463833 0.000000 -0.885922
vn 0.463833 0.000000 -0.885922
vn -0.463833 0.000000 0.885922
vn -0.463833 0.000000 0.885922
vn -0.463833 0.000000 0.885922
vn -0.463833 0.000000 0.885922
vn -0.946375 0.000000 0.323072
vn -0.946375 0.000000 0.323072
vn -0.946375 0.000000 0.323072
vn -0.946375 0.000000 0.323072
vn 0.000000 1.000000 0.000000
vn 0.000000 1.000000 0.000000
vn 0.000000 1.000000 0.000000
vn 0.000000 1.000000 0.000000
vn 0.946373 0.000000 -0.323075
vn 0.946373 0.000000 -0.323075
vn 0.946373 0.000000 -0.323075
vn 0.946373 0.000000 -0.323075
vn 0.000000 -1.000000 0.000000
vn 0.000000 -1.000000 0.000000
vn 0.000000 -1.000000 0.000000
vn 0.000000 -1.000000 0.000000
vn 0.274871 0.000000 0.961481
vn 0.274871 0.000000 0.961481
vn 0.274871 0.000000 0.961481
vn 0.274871 0.000000 0.961481
vn -0.274871 0.000000 -0.961481
vn -0.274871 0.000000 -0.961481
vn -0.274871 0.000000 -0.961481
vn -0.274871 0.000000 -0.961481
vn -0.946375 0.000000 0.323072
vn -0.946375 0.000000 0.323072
vn -0.946375 0.000000 0.323072
vn -0.946375 0.000000 0.323072
vn 0.000000 1.000000 0.000000
vn 0.000000 1.000000 0.000000
vn 0.000000 1.000000 0.000000
vn 0.000000 1.000000 0.000000
vn 0.946373 0.000000 -0.323075
vn 0.946373 0.000000 -0.323075
vn 0.946373 0.000000 -0.323075
vn 0.946373 0.000000 -0.323075
vn 0.000000 -1.000000 0.000000
vn 0.000000 -1.000000 0.000000
vn 0.000000 -1.000000 0.000000
vn 0.000000 -1.000000 0.000000
vn 0.274871 0.000000 0.961481
vn 0.274871 0.000000 0.961481
vn 0.274871 0.000000 0.961481
vn 0.274871 0.000000 0.961481
vn -0.274871 0.000000 -0.961481
vn -0.274871 0.000000 -0.961481
vn -0.274871 0.000000 -0.961481
vn -0.274871 0.000000 -0.961481
vn -0.675103 0.000000 0.737723
vn -0.675103 0.000000 0.737723
vn -0.675103 0.000000 0.737723
vn -0.675103 0.000000 0.737723
vn 0.000000 1.000000 0.000000
vn 0.000000 1.000000 0.000000
vn 0.000000 1.000000 0.000000
vn 0.000000 1.000000 0.000000
vn 0.675101 0.000000 -0.737726
vn 0.675101 0.000000 -0.737726
vn 0.675101 0.000000 -0.737726
vn 0.675101 0.000000 -0.737726
vn 0.000000 -1.000000 0.000000
vn 0.000000 -1.000000 0.000000
vn 0.000000 -1.000000 0.000000
vn 0.000000 -1.000000 0.000000
vn 0.675101 0.000000 0.737726
vn 0.675101 0.000000 0.737726
vn 0.675101 0.000000 0.737726
vn 0.675101 0.000000 0.737726
vn -0.675101 0.000000 -0.737726
vn -0.675101 0.000000 -0.737726
vn -0.675101 0.000000 -0.737726
vn -0.675101 0.000000 -0.737726
vn -0.544731 -0.590702 -0.595264
vn -0.544731 -0.590702 -0.595264
vn 0.675101 0.000000 0.737726
vn 0.675101 0.000000 0.737726
vn 0.816574 0.000000 0.577241
vn 0.816574 0.000000 0.577241
vn 0.675101 0.000000 0.737726
vn 0.675101 0.000000 0.737726
vn 0.189373 0.959850 -0.206944
vn 0.189373 0.959850 -0.206944
vn 0.000000 1.000000 0.000000
vn 0.000000 1.000000 0.000000
vn -0.370160 -0.836280 -0.404496
vn -0.370160 -0.836280 -0.404496
vn 0.000000 1.000000 0.000000
vn 0.000000 1.000000 0.000000
vn 0.178050 -0.964594 -0.194566
vn 0.178050 -0.964594 -0.194566
vn -0.675101 0.000000 0.737726
vn -0.675101 0.000000 0.737726
vn -0.353148 0.000000 -0.935567
vn -0.353148 0.000000 -0.935567
vn -0.675101 0.000000 0.737726
vn -0.675101 0.000000 0.737726
vn 0.252276 -0.967655 0.000000
vn 0.252276 -0.967655 0.000000
vn -1.000000 0.000000 0.000000
vn -1.000000 0.000000 0.000000
vn 0.353645 0.000000 0.935380
vn 0.353645 0.000000 0.935380
vn -1.000000 0.000000 0.000000
vn -1.000000 0.000000 0.000000
vn 0.251701 0.967805 0.000000
vn 0.251701 0.967805 0.000000
vn -1.000000 0.000000 0.000000
vn -1.000000 0.000000 0.000000
vn 0.225356 0.000000 -0.974276
vn 0.225356 0.000000 -0.974276
vn -1.000000 0.000000 0.000000
vn -1.000000 0.000000 0.000000
vn -0.314683 -0.868265 0.383525
vn -0.314683 -0.868265 0.383525
vn 0.000000 1.000000 0.000000
vn 0.000000 1.000000 0.000000
vn 0.217807 0.952376 0.213400
vn 0.217807 0.952376 0.213400
vn 0.000000 1.000000 0.000000
vn 0.000000 1.000000 0.000000
vn 0.412677 -0.759428 -0.502958
vn 0.412677 -0.759428 -0.502958
vn 0.000000 1.000000 0.000000
vn 0.000000 1.000000 0.000000
vn 0.203704 -0.958473 0.199585
vn 0.203704 -0.958473 0.199585
vn -0.714292 0.000000 -0.699848
vn -0.714292 0.000000 -0.699848
vn -0.225625 0.000000 0.974214
vn -0.225625 0.000000 0.974214
vn -0.714292 0.000000 -0.699848
vn -0.714292 0.000000 -0.699848
vn 0.856799 0.000000 -0.515650
vn 0.856799 0.000000 -0.515650
vn -0.714292 0.000000 -0.699848
vn -0.714292 0.000000 -0.699848
vn -0.186748 -0.960980 0.204067
vn -0.186748 -0.960980 0.204067
vn 0.000000 1.000000 0.000000
vn 0.000000 1.000000 0.000000
vn 0.319029 0.881296 -0.348623
vn 0.319029 0.881296 -0.348623
vn 0.000000 1.000000 0.000000
vn 0.000000 1.000000 0.000000
vn -0.606968 0.437826 -0.663248
vn -0.606968 0.437826 -0.663248
vn 0.000000 1.000000 0.000000
vn 0.000000 1.000000 0.000000
vn -0.545202 -0.589749 -0.595778
vn -0.545202 -0.589749 -0.595778
vn 0.675101 0.000000 0.737726
vn 0.675101 0.000000 0.737726
vn 0.902665 0.000000 0.430345
vn 0.902665 0.000000 0.430345
vn 0.675101 0.000000 0.737726
vn 0.675101 0.000000 0.737726
vn -0.814437 0.000000 -0.580251
vn -0.814437 0.000000 -0.580251
vn 0.675101 0.000000 0.737726
vn 0.675101 0.000000 0.737726
s off
g area_tortugas1:Plane002
usemtl area_tortugas1:lambert27SG
f 64/1/1 65/2/2 66/3/3 67/4/4
f 67/4/5 66/3/6 68/5/7 69/6/8
usemtl area_tortugas1:initialShadingGroup
f 4/7/9 5/8/10 7/9/11 6/10/12
f 6/10/13 7/9/14 2/11/15 1/12/16
f 2/13/17 7/14/18 5/15/19 3/16/20
usemtl area_tortugas1:lambert27SG
f 70/17/21 64/1/22 67/4/23 69/18/24
usemtl area_tortugas1:initialShadingGroup
f 8/19/25 9/20/26 11/21/27 10/22/28
usemtl area_tortugas1:lambert27SG
f 10/22/29 11/21/30 13/23/31 12/24/32
usemtl area_tortugas1:initialShadingGroup
f 12/24/33 13/23/34 15/25/35 14/26/36
f 14/26/37 15/25/38 9/27/39 8/28/40
f 9/20/41 15/29/42 13/30/43 11/21/44
usemtl area_tortugas1:lambert5SG
f 72/31/45 71/32/46 73/33/47 74/34/48
usemtl area_tortugas1:initialShadingGroup
f 16/35/49 17/36/50 19/37/51 18/38/52
usemtl area_tortugas1:lambert27SG
f 76/39/53 75/40/54 77/41/55 78/42/56
usemtl area_tortugas1:initialShadingGroup
f 20/43/57 21/44/58 23/45/59 22/46/60
f 22/46/61 23/45/62 17/47/63 16/48/64
usemtl lambert47SG
f 17/36/65 23/49/66 21/50/67 19/37/68
usemtl area_tortugas1:lambert27SG
f 80/51/69 79/52/70 76/39/71 78/53/72
usemtl area_tortugas1:initialShadingGroup
f 24/54/73 25/55/74 27/56/75 26/57/76
usemtl area_tortugas1:lambert27SG
f 26/57/77 27/56/78 29/58/79 28/59/80
usemtl area_tortugas1:initialShadingGroup
f 28/59/81 29/58/82 31/60/83 30/61/84
f 30/61/85 31/60/86 25/62/87 24/63/88
f 25/55/89 31/64/90 29/65/91 27/56/92
usemtl area_tortugas1:lambert27SG
f 30/66/93 24/54/94 26/57/95 28/67/96
f 32/68/97 33/69/98 35/70/99 34/71/100
f 34/71/101 35/70/102 37/72/103 36/73/104
usemtl area_tortugas1:initialShadingGroup
f 36/73/105 37/72/106 39/74/107 38/75/108
f 38/75/109 39/74/110 33/76/111 32/77/112
usemtl area_tortugas1:lambert27SG
f 33/69/113 39/78/114 37/79/115 35/70/116
usemtl area_tortugas1:initialShadingGroup
f 38/80/117 32/68/118 34/71/119 36/81/120
f 40/82/121 41/83/122 43/84/123 42/85/124
usemtl area_tortugas1:lambert27SG
f 42/85/125 43/84/126 45/86/127 44/87/128
usemtl area_tortugas1:initialShadingGroup
f 44/87/129 45/86/130 47/88/131 46/89/132
f 46/89/133 47/88/134 41/90/135 40/91/136
usemtl area_tortugas1:lambert27SG
f 41/83/137 47/92/138 45/93/139 43/84/140
usemtl area_tortugas1:initialShadingGroup
f 46/94/141 40/82/142 42/85/143 44/95/144
usemtl area_tortugas1:lambert27SG
f 48/96/145 49/97/146 51/98/147 50/99/148
f 50/99/149 51/98/150 53/100/151 52/101/152
f 52/101/153 53/100/154 55/102/155 54/103/156
usemtl area_tortugas1:initialShadingGroup
f 54/103/157 55/102/158 49/104/159 48/105/160
f 49/97/161 55/106/162 53/107/163 51/98/164
usemtl area_tortugas1:lambert27SG
f 54/108/165 48/96/166 50/99/167 52/109/168
f 81/110/169 82/111/170 83/112/171 84/113/172
f 84/113/173 83/112/174 85/114/175 86/115/176
f 86/115/177 85/114/178 87/116/179 88/117/180
f 88/117/181 87/116/182 82/118/183 81/119/184
f 82/111/185 87/120/186 85/121/187 83/112/188
f 88/122/189 81/110/190 84/113/191 86/123/192
f 89/124/193 90/125/194 91/126/195 92/127/196
f 92/127/197 91/126/198 93/128/199 94/129/200
f 94/129/201 93/128/202 95/130/203 96/131/204
f 96/131/205 95/130/206 90/132/207 89/133/208
f 90/125/209 95/134/210 93/135/211 91/126/212
f 96/136/213 89/124/214 92/127/215 94/137/216
usemtl area_tortugas1:initialShadingGroup
f 56/138/217 57/139/218 59/140/219 58/141/220
usemtl area_tortugas1:lambert27SG
f 98/142/221 97/143/222 99/144/223 100/145/224
f 60/146/225 61/147/226 63/148/227 62/149/228
usemtl area_tortugas1:initialShadingGroup
f 62/149/229 63/148/230 57/150/231 56/151/232
usemtl area_tortugas1:lambert27SG
f 102/152/233 101/153/234 99/154/235 97/143/236
usemtl area_tortugas1:initialShadingGroup
f 62/155/237 56/138/238 58/141/239 60/156/240
f 1/157/241 2/13/242 65/2/243 64/1/244
f 2/13/245 3/16/246 66/3/247 65/2/248
f 3/16/249 5/8/250 68/5/251 66/3/252
f 5/8/253 4/7/254 69/6/255 68/5/256
f 6/158/257 1/157/258 64/1/259 70/17/260
f 4/159/261 6/158/262 70/17/263 69/18/264
f 14/160/265 8/19/266 71/32/267 72/31/268
f 8/19/269 10/22/270 73/33/271 71/32/272
f 10/22/273 12/161/274 74/34/275 73/33/276
f 12/161/277 14/160/278 72/31/279 74/34/280
f 18/38/281 19/37/282 75/40/283 76/39/284
f 19/37/285 21/44/286 77/41/287 75/40/288
f 21/44/289 20/43/290 78/42/291 77/41/292
f 22/162/293 16/35/294 79/52/295 80/51/296
f 16/35/297 18/38/298 76/39/299 79/52/300
f 20/163/301 22/162/302 80/51/303 78/53/304
f 58/141/305 59/140/306 97/143/307 98/142/308
f 61/147/309 60/146/310 100/145/311 99/144/312
f 60/146/313 58/141/314 98/142/315 100/145/316
f 57/139/317 63/164/318 101/153/319 102/152/320
f 63/164/321 61/165/322 99/154/323 101/153/324
f 59/140/325 57/139/326 102/152/327 97/143/328
