# This file uses centimeters as units for non-parametric coordinates.

mtllib area_delfines.mtl
g default
v 163.462997 0.106424 -37.802261
v 161.561096 0.106424 -37.802277
v 163.462997 20.908052 -37.802277
v 161.561096 20.908052 -37.802277
v 163.462997 20.908052 37.500656
v 161.561096 20.908052 37.500656
v 163.462997 0.106424 37.500671
v 161.561096 0.106424 37.500656
v 163.114151 0.106424 37.497177
v 163.114166 0.106424 35.595276
v 163.114166 20.908052 37.497177
v 163.114166 20.908052 35.595276
v 125.777763 20.908052 37.497177
v 125.777763 20.908052 35.595276
v 125.777748 0.106424 37.497177
v 125.777763 0.106424 35.595276
v 13.750168 0.190297 99.367111
v 1.431808 0.190297 84.314331
v 1.431808 20.818596 84.314331
v 13.750168 20.818596 99.367111
v 125.722626 0.190297 84.326111
v 113.404175 0.190297 99.378815
v 113.404175 20.818596 99.378815
v 125.722626 20.818596 84.326111
v 125.276489 0.190297 37.811584
v 125.276489 0.190297 85.531052
v 125.276489 20.818596 85.531052
v 125.276489 20.818596 37.811584
v 92.937866 0.182898 22.750950
v 34.349113 0.182898 22.750950
v 92.937866 3.095549 22.750950
v 34.349113 3.095549 22.750950
v 92.937866 3.095549 24.659748
v 34.349113 3.095549 24.659748
v 92.937866 0.182898 24.659748
v 34.349113 0.182898 24.659748
v 114.849640 0.190297 22.750950
v 92.622704 0.190297 22.750950
v 114.849640 20.818596 22.750950
v 92.622704 20.818596 22.750950
v 114.849640 20.818596 24.659748
v 92.622704 20.818596 24.659748
v 114.849640 0.190297 24.659748
v 92.622704 0.190297 24.659748
v 127.184853 0.190297 37.806992
v 114.866486 0.190297 22.754215
v 127.184853 20.818596 37.806992
v 114.866486 20.818596 22.754215
v 125.707642 20.818596 39.015862
v 113.389275 20.818596 23.963085
v 125.707642 0.190297 39.015862
v 113.389275 0.190297 23.963085
v 92.913452 17.932983 22.750950
v 34.381149 17.932983 22.750950
v 92.913452 20.845634 22.750950
v 34.381149 20.845634 22.750950
v 92.913452 20.845634 24.659748
v 34.381149 20.845634 24.659748
v 92.913452 17.932983 24.659748
v 34.381149 17.932983 24.659748
v 34.509018 0.190297 22.750950
v 12.282078 0.190297 22.750950
v 34.509018 20.818596 22.750950
v 12.282078 20.818596 22.750950
v 34.509018 20.818596 24.659748
v 12.282078 20.818596 24.659748
v 34.509018 0.190297 24.659748
v 12.282078 0.190297 24.659748
v 12.271126 0.190297 22.735149
v -0.047325 0.190297 37.787857
v 12.271126 20.818596 22.735149
v -0.047325 20.818596 37.787857
v 13.748329 20.818596 23.944027
v 1.429878 20.818596 38.996735
v 13.748329 0.190297 23.944027
v 1.429878 0.190297 38.996735
v -0.027451 0.190297 37.811584
v -0.027451 0.190297 85.531052
v -0.027451 20.818596 37.811584
v -0.027451 20.818596 85.531052
v 1.881348 20.818596 37.811584
v 1.881348 20.818596 85.531052
v 1.881348 0.190297 37.811584
v 1.881348 0.190297 85.531052
v 13.750168 0.190297 99.367111
v 1.431808 0.190297 84.314331
v 13.750168 20.818596 99.367111
v 1.431808 20.818596 84.314331
v 12.272957 20.818596 100.575974
v -0.045403 20.818596 85.523201
v 12.272957 0.190297 100.575974
v -0.045403 0.190297 85.523201
v 115.041473 0.190297 98.759628
v 12.194263 0.190297 98.759628
v 115.041473 20.818596 98.759628
v 12.194263 20.818596 98.759628
v 115.041473 20.818596 100.668427
v 12.194263 20.818596 100.668427
v 115.041473 0.190297 100.668427
v 12.194263 0.190297 100.668427
v 125.722626 0.190297 84.326111
v 113.404175 0.190297 99.378815
v 125.722626 20.818596 84.326111
v 113.404175 20.818596 99.378815
v 127.199837 20.818596 85.534988
v 114.881378 20.818596 100.587692
v 127.199837 0.190297 85.534988
v 114.881378 0.190297 100.587692
v 125.276489 0.190297 37.811584
v 125.276489 0.190297 85.531052
v 125.276489 20.818596 37.811584
v 125.276489 20.818596 85.531052
v 127.185287 20.818596 37.811584
v 127.185287 20.818596 85.531052
v 127.185287 0.190297 37.811584
v 127.185287 0.190297 85.531052
vt 0.375000 0.000000
vt 0.625000 0.000000
vt 0.625000 0.250000
vt 0.375000 0.250000
vt 0.625000 0.500000
vt 0.375000 0.500000
vt 0.625000 0.750000
vt 0.375000 0.750000
vt 0.625000 1.000000
vt 0.375000 1.000000
vt 0.875000 0.000000
vt 0.875000 0.250000
vt 0.125000 0.000000
vt 0.125000 0.250000
vt 0.375000 0.000000
vt 0.625000 0.000000
vt 0.625000 0.250000
vt 0.375000 0.250000
vt 0.625000 0.500000
vt 0.375000 0.500000
vt 0.625000 0.750000
vt 0.375000 0.750000
vt 0.625000 1.000000
vt 0.375000 1.000000
vt 0.875000 0.000000
vt 0.875000 0.250000
vt 0.125000 0.000000
vt 0.125000 0.250000
vt 0.499298 0.003884
vt 0.995940 0.003884
vt 0.995940 0.993735
vt 0.499298 0.993735
vt 0.251869 0.983973
vt 0.009647 0.982418
vt 0.010036 0.013646
vt 0.252258 0.015201
vt 0.999712 1.000129
vt -0.001319 0.998522
vt 0.000288 -0.002510
vt 1.001319 -0.000903
vt 0.375000 0.000000
vt 0.625000 0.000000
vt 0.625000 0.250000
vt 0.375000 0.250000
vt 0.625000 0.500000
vt 0.375000 0.500000
vt 0.625000 0.750000
vt 0.375000 0.750000
vt 0.625000 1.000000
vt 0.375000 1.000000
vt 0.875000 0.000000
vt 0.875000 0.250000
vt 0.125000 0.000000
vt 0.125000 0.250000
vt 0.375000 0.000000
vt 0.625000 0.000000
vt 0.625000 0.250000
vt 0.375000 0.250000
vt 0.625000 0.500000
vt 0.375000 0.500000
vt 0.625000 0.750000
vt 0.375000 0.750000
vt 0.625000 1.000000
vt 0.375000 1.000000
vt 0.875000 0.000000
vt 0.875000 0.250000
vt 0.125000 0.000000
vt 0.125000 0.250000
vt 0.375000 0.000000
vt 0.625000 0.000000
vt 0.625000 0.250000
vt 0.375000 0.250000
vt 0.625000 0.500000
vt 0.375000 0.500000
vt 0.625000 0.750000
vt 0.375000 0.750000
vt 0.625000 1.000000
vt 0.375000 1.000000
vt 0.875000 0.000000
vt 0.875000 0.250000
vt 0.125000 0.000000
vt 0.125000 0.250000
vt 0.375000 0.000000
vt 0.625000 0.000000
vt 0.625000 0.250000
vt 0.375000 0.250000
vt 0.625000 0.500000
vt 0.375000 0.500000
vt 0.625000 0.750000
vt 0.375000 0.750000
vt 0.625000 1.000000
vt 0.375000 1.000000
vt 0.875000 0.000000
vt 0.875000 0.250000
vt 0.125000 0.000000
vt 0.125000 0.250000
vt 0.375000 0.000000
vt 0.625000 0.000000
vt 0.625000 0.250000
vt 0.375000 0.250000
vt 0.625000 0.500000
vt 0.375000 0.500000
vt 0.625000 0.750000
vt 0.375000 0.750000
vt 0.625000 1.000000
vt 0.375000 1.000000
vt 0.875000 0.000000
vt 0.875000 0.250000
vt 0.125000 0.000000
vt 0.125000 0.250000
vt 0.375000 0.000000
vt 0.625000 0.000000
vt 0.625000 0.250000
vt 0.375000 0.250000
vt 0.625000 0.500000
vt 0.375000 0.500000
vt 0.625000 0.750000
vt 0.375000 0.750000
vt 0.625000 1.000000
vt 0.375000 1.000000
vt 0.875000 0.000000
vt 0.875000 0.250000
vt 0.125000 0.000000
vt 0.125000 0.250000
vt 0.375000 0.000000
vt 0.625000 0.000000
vt 0.625000 0.250000
vt 0.375000 0.250000
vt 0.625000 0.500000
vt 0.375000 0.500000
vt 0.625000 0.750000
vt 0.375000 0.750000
vt 0.625000 1.000000
vt 0.375000 1.000000
vt 0.875000 0.000000
vt 0.875000 0.250000
vt 0.125000 0.000000
vt 0.125000 0.250000
vt 0.375000 0.250000
vt 0.625000 0.250000
vt 0.625000 0.500000
vt 0.375000 0.500000
vt 0.625000 0.750000
vt 0.375000 0.750000
vt 0.625000 1.000000
vt 0.375000 1.000000
vt 0.625000 0.000000
vt 0.875000 0.000000
vt 0.875000 0.250000
vt 0.125000 0.000000
vt 0.375000 0.000000
vt 0.125000 0.250000
vt 0.000918 -0.001432
vt 0.996930 -0.004128
vt 0.999654 0.996670
vt 0.003642 0.999366
vt 0.375000 0.250000
vt 0.625000 0.250000
vt 0.625000 0.500000
vt 0.375000 0.500000
vt 0.625000 0.750000
vt 0.375000 0.750000
vt 0.625000 1.000000
vt 0.375000 1.000000
vt 0.625000 0.000000
vt 0.875000 0.000000
vt 0.875000 0.250000
vt 0.125000 0.000000
vt 0.375000 0.000000
vt 0.125000 0.250000
vt 0.375000 0.250000
vt 0.625000 0.250000
vt 0.625000 0.500000
vt 0.375000 0.500000
vt 0.625000 0.750000
vt 0.375000 0.750000
vt 0.625000 1.000000
vt 0.375000 1.000000
vt 0.625000 0.000000
vt 0.875000 0.000000
vt 0.875000 0.250000
vt 0.125000 0.000000
vt 0.375000 0.000000
vt 0.125000 0.250000
vt 0.375000 0.250000
vt 0.625000 0.250000
vt 0.625000 0.500000
vt 0.375000 0.500000
vt 0.625000 0.750000
vt 0.375000 0.750000
vt 0.625000 1.000000
vt 0.375000 1.000000
vt 0.625000 0.000000
vt 0.875000 0.000000
vt 0.875000 0.250000
vt 0.125000 0.000000
vt 0.375000 0.000000
vt 0.125000 0.250000
vn 0.000003 -0.000000 -1.000000
vn 0.000003 -0.000000 -1.000000
vn 0.000003 -0.000000 -1.000000
vn 0.000003 -0.000000 -1.000000
vn 0.000000 1.000000 0.000000
vn 0.000000 1.000000 0.000000
vn 0.000000 1.000000 0.000000
vn 0.000000 1.000000 0.000000
vn -0.000005 0.000000 1.000000
vn -0.000005 0.000000 1.000000
vn -0.000005 0.000000 1.000000
vn -0.000005 0.000000 1.000000
vn 0.000000 -1.000000 0.000000
vn 0.000000 -1.000000 0.000000
vn 0.000000 -1.000000 0.000000
vn 0.000000 -1.000000 0.000000
vn -1.000000 0.000000 0.000000
vn -1.000000 0.000000 0.000000
vn -1.000000 0.000000 0.000000
vn -1.000000 0.000000 0.000000
vn 1.000000 0.000000 0.000000
vn 1.000000 0.000000 0.000000
vn 1.000000 0.000000 0.000000
vn 1.000000 0.000000 0.000000
vn 1.000000 0.000000 0.000004
vn 1.000000 0.000000 0.000004
vn 1.000000 0.000000 0.000004
vn 1.000000 0.000000 0.000004
vn 0.000000 1.000000 0.000000
vn 0.000000 1.000000 0.000000
vn 0.000000 1.000000 0.000000
vn 0.000000 1.000000 0.000000
vn -1.000000 0.000000 -0.000004
vn -1.000000 0.000000 -0.000004
vn -1.000000 0.000000 -0.000004
vn -1.000000 0.000000 -0.000004
vn 0.000000 -1.000000 0.000000
vn 0.000000 -1.000000 0.000000
vn 0.000000 -1.000000 0.000000
vn 0.000000 -1.000000 0.000000
vn 0.000000 0.000000 -1.000000
vn 0.000000 0.000000 -1.000000
vn 0.000000 0.000000 -1.000000
vn 0.000000 0.000000 -1.000000
vn 0.000000 0.000000 1.000000
vn 0.000000 0.000000 1.000000
vn 0.000000 0.000000 1.000000
vn 0.000000 0.000000 1.000000
vn 0.773896 0.000000 -0.633313
vn 0.773896 0.000000 -0.633313
vn 0.773896 0.000000 -0.633313
vn 0.773896 0.000000 -0.633313
vn -0.773892 0.000000 -0.633318
vn -0.773892 0.000000 -0.633318
vn -0.773892 0.000000 -0.633318
vn -0.773892 0.000000 -0.633318
vn -1.000000 0.000000 -0.000000
vn -1.000000 0.000000 -0.000000
vn -1.000000 0.000000 -0.000000
vn -1.000000 0.000000 -0.000000
vn 0.000000 0.000000 -1.000000
vn 0.000000 0.000000 -1.000000
vn 0.000000 0.000000 -1.000000
vn 0.000000 0.000000 -1.000000
vn 0.000000 1.000000 0.000000
vn 0.000000 1.000000 0.000000
vn 0.000000 1.000000 0.000000
vn 0.000000 1.000000 0.000000
vn -0.000000 0.000000 1.000000
vn -0.000000 0.000000 1.000000
vn -0.000000 0.000000 1.000000
vn -0.000000 0.000000 1.000000
vn 0.000000 -1.000000 0.000000
vn 0.000000 -1.000000 0.000000
vn 0.000000 -1.000000 0.000000
vn 0.000000 -1.000000 0.000000
vn -1.000000 0.000000 -0.000000
vn -1.000000 0.000000 -0.000000
vn -1.000000 0.000000 -0.000000
vn -1.000000 0.000000 -0.000000
vn 1.000000 0.000000 0.000000
vn 1.000000 0.000000 0.000000
vn 1.000000 0.000000 0.000000
vn 1.000000 0.000000 0.000000
vn 0.000000 0.000000 -1.000000
vn 0.000000 0.000000 -1.000000
vn 0.000000 0.000000 -1.000000
vn 0.000000 0.000000 -1.000000
vn 0.000000 1.000000 0.000000
vn 0.000000 1.000000 0.000000
vn 0.000000 1.000000 0.000000
vn 0.000000 1.000000 0.000000
vn -0.000000 0.000000 1.000000
vn -0.000000 0.000000 1.000000
vn -0.000000 0.000000 1.000000
vn -0.000000 0.000000 1.000000
vn 0.000000 -1.000000 0.000000
vn 0.000000 -1.000000 0.000000
vn 0.000000 -1.000000 0.000000
vn 0.000000 -1.000000 0.000000
vn -1.000000 0.000000 -0.000000
vn -1.000000 0.000000 -0.000000
vn -1.000000 0.000000 -0.000000
vn -1.000000 0.000000 -0.000000
vn 1.000000 0.000000 0.000000
vn 1.000000 0.000000 0.000000
vn 1.000000 0.000000 0.000000
vn 1.000000 0.000000 0.000000
vn 0.773895 0.000000 -0.633314
vn 0.773895 0.000000 -0.633314
vn 0.773895 0.000000 -0.633314
vn 0.773895 0.000000 -0.633314
vn 0.000000 1.000000 0.000000
vn 0.000000 1.000000 0.000000
vn 0.000000 1.000000 0.000000
vn 0.000000 1.000000 0.000000
vn -0.773895 0.000000 0.633314
vn -0.773895 0.000000 0.633314
vn -0.773895 0.000000 0.633314
vn -0.773895 0.000000 0.633314
vn 0.000000 -1.000000 0.000000
vn 0.000000 -1.000000 0.000000
vn 0.000000 -1.000000 0.000000
vn 0.000000 -1.000000 0.000000
vn -0.633314 0.000000 -0.773895
vn -0.633314 0.000000 -0.773895
vn -0.633314 0.000000 -0.773895
vn -0.633314 0.000000 -0.773895
vn 0.633314 0.000000 0.773895
vn 0.633314 0.000000 0.773895
vn 0.633314 0.000000 0.773895
vn 0.633314 0.000000 0.773895
vn 0.000000 0.000000 -1.000000
vn 0.000000 0.000000 -1.000000
vn 0.000000 0.000000 -1.000000
vn 0.000000 0.000000 -1.000000
vn 0.000000 1.000000 0.000000
vn 0.000000 1.000000 0.000000
vn 0.000000 1.000000 0.000000
vn 0.000000 1.000000 0.000000
vn -0.000000 0.000000 1.000000
vn -0.000000 0.000000 1.000000
vn -0.000000 0.000000 1.000000
vn -0.000000 0.000000 1.000000
vn 0.000000 -1.000000 0.000000
vn 0.000000 -1.000000 0.000000
vn 0.000000 -1.000000 0.000000
vn 0.000000 -1.000000 0.000000
vn -1.000000 0.000000 -0.000000
vn -1.000000 0.000000 -0.000000
vn -1.000000 0.000000 -0.000000
vn -1.000000 0.000000 -0.000000
vn 1.000000 0.000000 0.000000
vn 1.000000 0.000000 0.000000
vn 1.000000 0.000000 0.000000
vn 1.000000 0.000000 0.000000
vn 0.000000 0.000000 -1.000000
vn 0.000000 0.000000 -1.000000
vn 0.000000 0.000000 -1.000000
vn 0.000000 0.000000 -1.000000
vn 0.000000 1.000000 0.000000
vn 0.000000 1.000000 0.000000
vn 0.000000 1.000000 0.000000
vn 0.000000 1.000000 0.000000
vn -0.000000 0.000000 1.000000
vn -0.000000 0.000000 1.000000
vn -0.000000 0.000000 1.000000
vn -0.000000 0.000000 1.000000
vn 0.000000 -1.000000 0.000000
vn 0.000000 -1.000000 0.000000
vn 0.000000 -1.000000 0.000000
vn 0.000000 -1.000000 0.000000
vn -1.000000 0.000000 -0.000000
vn -1.000000 0.000000 -0.000000
vn -1.000000 0.000000 -0.000000
vn -1.000000 0.000000 -0.000000
vn 1.000000 0.000000 0.000000
vn 1.000000 0.000000 0.000000
vn 1.000000 0.000000 0.000000
vn 1.000000 0.000000 0.000000
vn -0.773892 0.000000 -0.633318
vn -0.773892 0.000000 -0.633318
vn -0.773892 0.000000 -0.633318
vn -0.773892 0.000000 -0.633318
vn 0.000000 1.000000 0.000000
vn 0.000000 1.000000 0.000000
vn 0.000000 1.000000 0.000000
vn 0.000000 1.000000 0.000000
vn 0.773892 0.000000 0.633318
vn 0.773892 0.000000 0.633318
vn 0.773892 0.000000 0.633318
vn 0.773892 0.000000 0.633318
vn 0.000000 -1.000000 0.000000
vn 0.000000 -1.000000 0.000000
vn 0.000000 -1.000000 0.000000
vn 0.000000 -1.000000 0.000000
vn -0.633318 0.000000 0.773892
vn -0.633318 0.000000 0.773892
vn -0.633318 0.000000 0.773892
vn -0.633318 0.000000 0.773892
vn 0.633319 0.000000 -0.773891
vn 0.633319 0.000000 -0.773891
vn 0.633319 0.000000 -0.773891
vn 0.633319 0.000000 -0.773891
vn -1.000000 0.000000 -0.000000
vn -1.000000 0.000000 -0.000000
vn -1.000000 0.000000 -0.000000
vn -1.000000 0.000000 -0.000000
vn 0.000000 1.000000 0.000000
vn 0.000000 1.000000 0.000000
vn 0.000000 1.000000 0.000000
vn 0.000000 1.000000 0.000000
vn 1.000000 0.000000 0.000000
vn 1.000000 0.000000 0.000000
vn 1.000000 0.000000 0.000000
vn 1.000000 0.000000 0.000000
vn 0.000000 -1.000000 0.000000
vn 0.000000 -1.000000 0.000000
vn 0.000000 -1.000000 0.000000
vn 0.000000 -1.000000 0.000000
vn -0.000000 0.000000 1.000000
vn -0.000000 0.000000 1.000000
vn -0.000000 0.000000 1.000000
vn -0.000000 0.000000 1.000000
vn 0.000000 0.000000 -1.000000
vn 0.000000 0.000000 -1.000000
vn 0.000000 0.000000 -1.000000
vn 0.000000 0.000000 -1.000000
vn 0.000000 1.000000 0.000000
vn 0.000000 1.000000 0.000000
vn 0.000000 1.000000 0.000000
vn 0.000000 1.000000 0.000000
vn -0.773896 0.000000 0.633313
vn -0.773896 0.000000 0.633313
vn -0.773896 0.000000 0.633313
vn -0.773896 0.000000 0.633313
vn 0.000000 -1.000000 0.000000
vn 0.000000 -1.000000 0.000000
vn 0.000000 -1.000000 0.000000
vn 0.000000 -1.000000 0.000000
vn -0.633313 0.000000 -0.773896
vn -0.633313 0.000000 -0.773896
vn -0.633313 0.000000 -0.773896
vn -0.633313 0.000000 -0.773896
vn 0.633314 0.000000 0.773895
vn 0.633314 0.000000 0.773895
vn 0.633314 0.000000 0.773895
vn 0.633314 0.000000 0.773895
vn 0.000000 0.000000 -1.000000
vn 0.000000 0.000000 -1.000000
vn 0.000000 0.000000 -1.000000
vn 0.000000 0.000000 -1.000000
vn 0.000000 1.000000 0.000000
vn 0.000000 1.000000 0.000000
vn 0.000000 1.000000 0.000000
vn 0.000000 1.000000 0.000000
vn -0.000000 0.000000 1.000000
vn -0.000000 0.000000 1.000000
vn -0.000000 0.000000 1.000000
vn -0.000000 0.000000 1.000000
vn 0.000000 -1.000000 0.000000
vn 0.000000 -1.000000 0.000000
vn 0.000000 -1.000000 0.000000
vn 0.000000 -1.000000 0.000000
vn -1.000000 0.000000 -0.000000
vn -1.000000 0.000000 -0.000000
vn -1.000000 0.000000 -0.000000
vn -1.000000 0.000000 -0.000000
vn 1.000000 0.000000 0.000000
vn 1.000000 0.000000 0.000000
vn 1.000000 0.000000 0.000000
vn 1.000000 0.000000 0.000000
vn 0.000000 1.000000 0.000000
vn 0.000000 1.000000 0.000000
vn 0.000000 1.000000 0.000000
vn 0.000000 1.000000 0.000000
vn 0.773892 0.000000 0.633318
vn 0.773892 0.000000 0.633318
vn 0.773892 0.000000 0.633318
vn 0.773892 0.000000 0.633318
vn 0.000000 -1.000000 0.000000
vn 0.000000 -1.000000 0.000000
vn 0.000000 -1.000000 0.000000
vn 0.000000 -1.000000 0.000000
vn -0.633317 0.000000 0.773892
vn -0.633317 0.000000 0.773892
vn -0.633317 0.000000 0.773892
vn -0.633317 0.000000 0.773892
vn 0.633318 0.000000 -0.773892
vn 0.633318 0.000000 -0.773892
vn 0.633318 0.000000 -0.773892
vn 0.633318 0.000000 -0.773892
vn 0.000000 1.000000 0.000000
vn 0.000000 1.000000 0.000000
vn 0.000000 1.000000 0.000000
vn 0.000000 1.000000 0.000000
vn 1.000000 0.000000 0.000000
vn 1.000000 0.000000 0.000000
vn 1.000000 0.000000 0.000000
vn 1.000000 0.000000 0.000000
vn 0.000000 -1.000000 0.000000
vn 0.000000 -1.000000 0.000000
vn 0.000000 -1.000000 0.000000
vn 0.000000 -1.000000 0.000000
vn -0.000000 0.000000 1.000000
vn -0.000000 0.000000 1.000000
vn -0.000000 0.000000 1.000000
vn -0.000000 0.000000 1.000000
vn 0.000000 0.000000 -1.000000
vn 0.000000 0.000000 -1.000000
vn 0.000000 0.000000 -1.000000
vn 0.000000 0.000000 -1.000000
s off
g polySurface436
usemtl lambert44SG
f 1/1/1 2/2/2 4/3/3 3/4/4
f 3/4/5 4/3/6 6/5/7 5/6/8
f 5/6/9 6/5/10 8/7/11 7/8/12
f 7/8/13 8/7/14 2/9/15 1/10/16
f 2/2/17 8/11/18 6/12/19 4/3/20
f 7/13/21 1/1/22 3/4/23 5/14/24
f 9/15/25 10/16/26 12/17/27 11/18/28
f 11/18/29 12/17/30 14/19/31 13/20/32
f 13/20/33 14/19/34 16/21/35 15/22/36
f 15/22/37 16/21/38 10/23/39 9/24/40
f 10/16/41 16/25/42 14/26/43 12/17/44
f 15/27/45 9/15/46 11/18/47 13/28/48
usemtl area_tiburon:lambert5SG
f 17/29/49 18/30/50 19/31/51 20/32/52
f 21/33/53 22/34/54 23/35/55 24/36/56
f 25/37/57 26/38/58 27/39/59 28/40/60
usemtl area_tiburon:lambert2SG
f 29/41/61 30/42/62 32/43/63 31/44/64
f 31/44/65 32/43/66 34/45/67 33/46/68
f 33/46/69 34/45/70 36/47/71 35/48/72
f 35/48/73 36/47/74 30/49/75 29/50/76
f 30/42/77 36/51/78 34/52/79 32/43/80
f 35/53/81 29/41/82 31/44/83 33/54/84
f 37/55/85 38/56/86 40/57/87 39/58/88
f 39/58/89 40/57/90 42/59/91 41/60/92
usemtl area_tiburon:lambert5SG
f 41/60/93 42/59/94 44/61/95 43/62/96
usemtl area_tiburon:initialShadingGroup
f 43/62/97 44/61/98 38/63/99 37/64/100
usemtl area_tiburon:lambert2SG
f 38/56/101 44/65/102 42/66/103 40/57/104
usemtl area_tiburon:initialShadingGroup
f 43/67/105 37/55/106 39/58/107 41/68/108
usemtl area_tiburon:lambert2SG
f 45/69/109 46/70/110 48/71/111 47/72/112
f 47/72/113 48/71/114 50/73/115 49/74/116
usemtl area_tiburon:lambert5SG
f 49/74/117 50/73/118 52/75/119 51/76/120
usemtl area_tiburon:initialShadingGroup
f 51/76/121 52/75/122 46/77/123 45/78/124
f 46/70/125 52/79/126 50/80/127 48/71/128
f 51/81/129 45/69/130 47/72/131 49/82/132
usemtl area_tiburon:lambert2SG
f 53/83/133 54/84/134 56/85/135 55/86/136
f 55/86/137 56/85/138 58/87/139 57/88/140
f 57/88/141 58/87/142 60/89/143 59/90/144
f 59/90/145 60/89/146 54/91/147 53/92/148
usemtl area_tiburon:initialShadingGroup
f 54/84/149 60/93/150 58/94/151 56/85/152
f 59/95/153 53/83/154 55/86/155 57/96/156
usemtl area_tiburon:lambert2SG
f 61/97/157 62/98/158 64/99/159 63/100/160
f 63/100/161 64/99/162 66/101/163 65/102/164
usemtl area_tiburon:lambert5SG
f 65/102/165 66/101/166 68/103/167 67/104/168
usemtl area_tiburon:initialShadingGroup
f 67/104/169 68/103/170 62/105/171 61/106/172
f 62/98/173 68/107/174 66/108/175 64/99/176
usemtl area_tiburon:lambert2SG
f 67/109/177 61/97/178 63/100/179 65/110/180
f 69/111/181 70/112/182 72/113/183 71/114/184
f 71/114/185 72/113/186 74/115/187 73/116/188
usemtl area_tiburon:lambert5SG
f 73/116/189 74/115/190 76/117/191 75/118/192
usemtl area_tiburon:initialShadingGroup
f 75/118/193 76/117/194 70/119/195 69/120/196
f 70/112/197 76/121/198 74/122/199 72/113/200
f 75/123/201 69/111/202 71/114/203 73/124/204
usemtl area_tiburon:lambert2SG
f 77/125/205 78/126/206 80/127/207 79/128/208
f 79/128/209 80/127/210 82/129/211 81/130/212
usemtl area_tiburon:lambert5SG
f 81/130/213 82/129/214 84/131/215 83/132/216
usemtl area_tiburon:initialShadingGroup
f 83/132/217 84/131/218 78/133/219 77/134/220
f 78/126/221 84/135/222 82/136/223 80/127/224
f 83/137/225 77/125/226 79/128/227 81/138/228
usemtl area_tiburon:lambert2SG
f 87/139/229 88/140/230 90/141/231 89/142/232
f 89/142/233 90/141/234 92/143/235 91/144/236
usemtl area_tiburon:initialShadingGroup
f 91/144/237 92/143/238 86/145/239 85/146/240
f 86/147/241 92/148/242 90/149/243 88/140/244
f 91/150/245 85/151/246 87/139/247 89/152/248
usemtl area_tiburon:lambert5SG
f 93/153/249 94/154/250 96/155/251 95/156/252
usemtl area_tiburon:lambert2SG
f 95/157/253 96/158/254 98/159/255 97/160/256
f 97/160/257 98/159/258 100/161/259 99/162/260
usemtl area_tiburon:initialShadingGroup
f 99/162/261 100/161/262 94/163/263 93/164/264
f 94/165/265 100/166/266 98/167/267 96/158/268
f 99/168/269 93/169/270 95/157/271 97/170/272
usemtl area_tiburon:lambert2SG
f 103/171/273 104/172/274 106/173/275 105/174/276
f 105/174/277 106/173/278 108/175/279 107/176/280
usemtl area_tiburon:initialShadingGroup
f 107/176/281 108/175/282 102/177/283 101/178/284
f 102/179/285 108/180/286 106/181/287 104/172/288
f 107/182/289 101/183/290 103/171/291 105/184/292
usemtl area_tiburon:lambert2SG
f 111/185/293 112/186/294 114/187/295 113/188/296
f 113/188/297 114/187/298 116/189/299 115/190/300
usemtl area_tiburon:initialShadingGroup
f 115/190/301 116/189/302 110/191/303 109/192/304
f 110/193/305 116/194/306 114/195/307 112/186/308
f 115/196/309 109/197/310 111/185/311 113/198/312
