# This file uses centimeters as units for non-parametric coordinates.

mtllib cristal_pin.mtl
g default
v -48.259745 1.325163 -31.028125
v -47.224833 1.325163 -35.748147
v -44.640494 1.325163 -39.859316
v -40.822291 1.325163 -42.859623
v -36.236473 1.325163 -44.382696
v -48.259745 5.663453 -31.028125
v -47.224833 5.663453 -35.748147
v -44.640494 5.663453 -39.859316
v -40.822291 5.663453 -42.859623
v -36.236473 5.663453 -44.382696
v -47.224833 9.953175 -35.748147
v -48.259745 9.953175 -31.028125
v -44.640494 9.953175 -39.859316
v -40.822291 9.953175 -42.859623
v -36.236473 9.953175 -44.382696
vt 0.000000 0.500000
vt 0.000000 0.250000
vt 0.250000 0.250000
vt 0.250000 0.500000
vt 0.500000 0.250000
vt 0.500000 0.500000
vt 0.750000 0.250000
vt 0.750000 0.500000
vt 1.000000 0.250000
vt 1.000000 0.500000
vt 0.000000 0.750000
vt 0.250000 0.750000
vt 0.500000 0.750000
vt 0.750000 0.750000
vt 1.000000 0.750000
vn 0.976796 0.000000 0.214172
vn 0.976796 0.000000 0.214172
vn 0.976796 0.000000 0.214172
vn 0.976796 0.000000 0.214172
vn 0.925325 0.000000 0.379174
vn 0.925325 0.000000 0.379174
vn 0.743179 0.000000 0.669093
vn 0.743179 0.000000 0.669093
vn 0.743179 0.000000 0.669093
vn 0.743179 0.000000 0.669093
vn 0.473910 0.000000 0.880573
vn 0.473910 0.000000 0.880573
vn 0.473910 0.000000 0.880573
vn 0.473910 0.000000 0.880573
vn 0.315229 0.000000 0.949016
vn 0.315229 0.000000 0.949016
vn 0.976789 0.000000 0.214203
vn 0.976789 0.000000 0.214203
vn 0.925325 0.000000 0.379174
vn 0.925325 0.000000 0.379174
vn 0.925325 0.000000 0.379174
vn 0.925325 0.000000 0.379174
vn 0.743179 0.000000 0.669093
vn 0.743179 0.000000 0.669093
vn 0.743179 0.000000 0.669093
vn 0.743179 0.000000 0.669093
vn 0.473910 0.000000 0.880573
vn 0.473910 0.000000 0.880573
vn 0.473910 0.000000 0.880573
vn 0.473910 0.000000 0.880573
vn 0.315229 0.000000 0.949016
vn 0.315229 0.000000 0.949016
s off
g polySurface7 pPlane6
usemtl lambert40SG
f 6/1/1 1/2/2 2/3/3 7/4/4
f 7/4/5 2/3/6 3/5/7 8/6/8
f 8/6/9 3/5/10 4/7/11 9/8/12
f 9/8/13 4/7/14 5/9/15 10/10/16
f 12/11/17 6/1/18 7/4/19 11/12/20
f 11/12/21 7/4/22 8/6/23 13/13/24
f 13/13/25 8/6/26 9/8/27 14/14/28
f 14/14/29 9/8/30 10/10/31 15/15/32
