# This file uses centimeters as units for non-parametric coordinates.

mtllib cristal_pez.mtl
g default
v -126.251021 1.325163 -9.059832
v -124.520410 1.325163 -13.571442
v -121.349120 1.325163 -17.248865
v -117.124385 1.325163 -19.643052
v -112.362097 1.325163 -20.461648
v -126.251021 5.663453 -9.059832
v -124.520410 5.663453 -13.571442
v -121.349120 5.663453 -17.248865
v -117.124385 5.663453 -19.643052
v -112.362097 5.663453 -20.461648
v -124.520410 9.953175 -13.571442
v -126.251021 9.953175 -9.059832
v -121.349120 9.953175 -17.248865
v -117.124385 9.953175 -19.643052
v -112.362097 9.953175 -20.461648
vt 0.000000 0.500000
vt 0.000000 0.250000
vt 0.250000 0.250000
vt 0.250000 0.500000
vt 0.500000 0.250000
vt 0.500000 0.500000
vt 0.750000 0.250000
vt 0.750000 0.500000
vt 1.000000 0.250000
vt 1.000000 0.500000
vt 0.000000 0.750000
vt 0.250000 0.750000
vt 0.500000 0.750000
vt 0.750000 0.750000
vt 1.000000 0.750000
vn 0.933666 0.000000 0.358145
vn 0.933666 0.000000 0.358145
vn 0.933666 0.000000 0.358145
vn 0.933666 0.000000 0.358145
vn 0.858048 0.000000 0.513570
vn 0.858048 0.000000 0.513570
vn 0.634509 0.000000 0.772916
vn 0.634509 0.000000 0.772916
vn 0.634509 0.000000 0.772916
vn 0.634509 0.000000 0.772916
vn 0.336587 0.000000 0.941653
vn 0.336587 0.000000 0.941653
vn 0.336587 0.000000 0.941653
vn 0.336587 0.000000 0.941653
vn 0.169440 0.000000 0.985540
vn 0.169440 0.000000 0.985540
vn 0.933654 0.000000 0.358175
vn 0.933654 0.000000 0.358175
vn 0.858048 0.000000 0.513570
vn 0.858048 0.000000 0.513570
vn 0.858048 0.000000 0.513570
vn 0.858048 0.000000 0.513570
vn 0.634509 0.000000 0.772916
vn 0.634509 0.000000 0.772916
vn 0.634509 0.000000 0.772916
vn 0.634509 0.000000 0.772916
vn 0.336587 0.000000 0.941653
vn 0.336587 0.000000 0.941653
vn 0.336587 0.000000 0.941653
vn 0.336587 0.000000 0.941653
vn 0.169440 0.000000 0.985540
vn 0.169440 0.000000 0.985540
s off
g polySurface3 pPlane5
usemtl lambert38SG
f 6/1/1 1/2/2 2/3/3 7/4/4
f 7/4/5 2/3/6 3/5/7 8/6/8
f 8/6/9 3/5/10 4/7/11 9/8/12
f 9/8/13 4/7/14 5/9/15 10/10/16
f 12/11/17 6/1/18 7/4/19 11/12/20
f 11/12/21 7/4/22 8/6/23 13/13/24
f 13/13/25 8/6/26 9/8/27 14/14/28
f 14/14/29 9/8/30 10/10/31 15/15/32
