# This file uses centimeters as units for non-parametric coordinates.

mtllib cristal.mtl
g default
v -33.052612 5.934451 46.683083
v -25.384710 5.934451 26.693274
v -11.333524 5.934451 10.399544
v 7.385211 5.934451 -0.208496
v 28.485704 5.934451 -3.835490
v -33.052612 25.156321 46.683083
v -25.384710 25.156321 26.693274
v -11.333524 25.156321 10.399544
v 7.385211 25.156321 -0.208496
v 28.485704 25.156321 -3.835490
v -25.384710 44.162994 26.693274
v -33.052612 44.162994 46.683083
v -11.333524 44.162994 10.399544
v 7.385211 44.162994 -0.208496
v 28.485704 44.162994 -3.835490
vt 0.065532 0.527040
vt 0.065532 0.238115
vt 0.282766 0.238115
vt 0.282766 0.527040
vt 0.500000 0.238115
vt 0.500000 0.527040
vt 0.717234 0.238115
vt 0.717234 0.527040
vt 0.934468 0.238115
vt 0.934468 0.527040
vt 0.065532 0.815965
vt 0.282766 0.815965
vt 0.500000 0.815965
vt 0.717234 0.815965
vt 0.934468 0.815965
vn 0.933666 0.000000 0.358145
vn 0.933666 0.000000 0.358145
vn 0.933666 0.000000 0.358145
vn 0.933666 0.000000 0.358145
vn 0.858048 -0.000000 0.513570
vn 0.858048 -0.000000 0.513570
vn 0.634509 -0.000000 0.772916
vn 0.634509 -0.000000 0.772916
vn 0.634509 -0.000000 0.772916
vn 0.634509 -0.000000 0.772916
vn 0.336587 0.000000 0.941652
vn 0.336587 0.000000 0.941652
vn 0.336587 0.000000 0.941652
vn 0.336587 0.000000 0.941652
vn 0.169440 0.000000 0.985540
vn 0.169440 0.000000 0.985540
vn 0.933654 -0.000000 0.358175
vn 0.933654 -0.000000 0.358175
vn 0.858048 -0.000000 0.513570
vn 0.858048 -0.000000 0.513570
vn 0.858048 -0.000000 0.513570
vn 0.858048 -0.000000 0.513570
vn 0.634509 -0.000000 0.772916
vn 0.634509 -0.000000 0.772916
vn 0.634509 -0.000000 0.772916
vn 0.634509 -0.000000 0.772916
vn 0.336587 0.000000 0.941652
vn 0.336587 0.000000 0.941652
vn 0.336587 0.000000 0.941652
vn 0.336587 0.000000 0.941652
vn 0.169440 0.000000 0.985540
vn 0.169440 0.000000 0.985540
s off
g area_peces:Plane001polySurface5
usemtl area_peces:lambert2SG
f 6/1/1 1/2/2 2/3/3 7/4/4
f 7/4/5 2/3/6 3/5/7 8/6/8
f 8/6/9 3/5/10 4/7/11 9/8/12
f 9/8/13 4/7/14 5/9/15 10/10/16
f 12/11/17 6/1/18 7/4/19 11/12/20
f 11/12/21 7/4/22 8/6/23 13/13/24
f 13/13/25 8/6/26 9/8/27 14/14/28
f 14/14/29 9/8/30 10/10/31 15/15/32
