# 3ds Max Wavefront OBJ Exporter v0.99 - (c)2007 guruware
# File Created: 21.11.2022 18:52:57

mtllib cristal.mtl

#
# object Plane001
#

v  -45.8503 -14.4022 16.6687
v  -45.8503 -29.1667 16.6687
v  -24.5852 -29.1667 4.2984
v  -24.5852 -14.4022 4.2984
v  -0.3623 -29.1667 -0.0000
v  -0.3623 -14.4022 -0.0000
v  23.8606 -29.1667 4.2984
v  23.8606 -14.4022 4.2984
v  45.1256 -29.1667 16.6687
v  45.1256 -14.4022 16.6687
v  -45.8503 0.3623 16.6687
v  -24.5852 0.3623 4.2984
v  -0.3623 0.3623 0.0000
v  23.8606 0.3623 4.2984
v  45.1256 0.3623 16.6687
v  -45.8503 15.1268 16.6687
v  -24.5852 15.1268 4.2984
v  -0.3623 15.1268 0.0000
v  23.8606 15.1268 4.2984
v  45.1256 15.1268 16.6687
v  -45.8503 29.8913 16.6687
v  -24.5852 29.8913 4.2984
v  -0.3623 29.8913 0.0000
v  23.8606 29.8913 4.2984
v  45.1256 29.8913 16.6687
# 25 vertices

vn 0.5028 -0.0000 0.8644
vn 0.3441 -0.0000 0.9389
vn 0.0000 -0.0000 1.0000
vn -0.3441 -0.0000 0.9389
vn -0.5028 -0.0000 0.8644
# 5 vertex normals

vt 0.0000 0.2500 0.0000
vt 0.0000 0.0000 0.0000
vt 0.2500 0.0000 0.0000
vt 0.2500 0.2500 0.0000
vt 0.5000 0.0000 0.0000
vt 0.5000 0.2500 0.0000
vt 0.7500 0.0000 0.0000
vt 0.7500 0.2500 0.0000
vt 1.0000 0.0000 0.0000
vt 1.0000 0.2500 0.0000
vt 0.0000 0.5000 0.0000
vt 0.2500 0.5000 0.0000
vt 0.5000 0.5000 0.0000
vt 0.7500 0.5000 0.0000
vt 1.0000 0.5000 0.0000
vt 0.0000 0.7500 0.0000
vt 0.2500 0.7500 0.0000
vt 0.5000 0.7500 0.0000
vt 0.7500 0.7500 0.0000
vt 1.0000 0.7500 0.0000
vt 0.0000 1.0000 0.0000
vt 0.2500 1.0000 0.0000
vt 0.5000 1.0000 0.0000
vt 0.7500 1.0000 0.0000
vt 1.0000 1.0000 0.0000
# 25 texture coords

o Plane001
g Plane001
usemtl wire_027177148
s 1
f 1/1/1 2/2/1 3/3/2 4/4/2 
f 4/4/2 3/3/2 5/5/3 6/6/3 
f 6/6/3 5/5/3 7/7/4 8/8/4 
f 8/8/4 7/7/4 9/9/5 10/10/5 
f 11/11/1 1/1/1 4/4/2 12/12/2 
f 12/12/2 4/4/2 6/6/3 13/13/3 
f 13/13/3 6/6/3 8/8/4 14/14/4 
f 14/14/4 8/8/4 10/10/5 15/15/5 
f 16/16/1 11/11/1 12/12/2 17/17/2 
f 17/17/2 12/12/2 13/13/3 18/18/3 
f 18/18/3 13/13/3 14/14/4 19/19/4 
f 19/19/4 14/14/4 15/15/5 20/20/5 
f 21/21/1 16/16/1 17/17/2 22/22/2 
f 22/22/2 17/17/2 18/18/3 23/23/3 
f 23/23/3 18/18/3 19/19/4 24/24/4 
f 24/24/4 19/19/4 20/20/5 25/25/5 
# 16 polygons

