# This file uses centimeters as units for non-parametric coordinates.

mtllib cristales.mtl
g default
v -58.848785 1.677273 27.659950
v -63.854362 1.677273 30.354687
v -69.550728 1.677273 31.521126
v -75.242317 1.677273 31.016830
v -80.234093 1.677273 28.903378
v -58.848785 6.015563 27.659950
v -63.854362 6.015563 30.354687
v -69.550728 6.015563 31.521126
v -75.242317 6.015563 31.016830
v -80.234093 6.015563 28.903378
v -63.854362 10.305285 30.354687
v -58.848785 10.305285 27.659950
v -69.550728 10.305285 31.521126
v -75.242317 10.305285 31.016830
v -80.234093 10.305285 28.903378
v -48.506668 1.677273 9.176711
v -48.948795 1.677273 14.844331
v -51.049950 1.677273 20.265976
v -54.553581 1.677273 24.779625
v -59.031837 1.677273 27.834103
v -48.506668 6.015563 9.176711
v -48.948795 6.015563 14.844331
v -51.049950 6.015563 20.265976
v -54.553581 6.015563 24.779625
v -59.031837 6.015563 27.834103
v -48.948795 10.305285 14.844331
v -48.506668 10.305285 9.176711
v -51.049950 10.305285 20.265976
v -54.553581 10.305285 24.779625
v -59.031837 10.305285 27.834103
v -79.570084 1.677273 29.259701
v -84.759727 1.677273 26.939156
v -89.160332 1.677273 23.138649
v -92.234528 1.677273 18.322239
v -79.570084 6.015563 29.259701
v -84.759727 6.015563 26.939156
v -89.160332 6.015563 23.138649
v -92.234528 6.015563 18.322239
v -84.759727 10.305285 26.939156
v -79.570084 10.305285 29.259701
v -89.160332 10.305285 23.138649
v -92.234528 10.305285 18.322239
vt 0.000000 0.500000
vt 0.000000 0.250000
vt 0.250000 0.250000
vt 0.250000 0.500000
vt 0.500000 0.250000
vt 0.500000 0.500000
vt 0.750000 0.250000
vt 0.750000 0.500000
vt 1.000000 0.250000
vt 1.000000 0.500000
vt 0.000000 0.750000
vt 0.250000 0.750000
vt 0.500000 0.750000
vt 0.750000 0.750000
vt 1.000000 0.750000
vt 0.000000 0.500000
vt 0.000000 0.250000
vt 0.250000 0.250000
vt 0.250000 0.500000
vt 0.500000 0.250000
vt 0.500000 0.500000
vt 0.750000 0.250000
vt 0.750000 0.500000
vt 1.000000 0.250000
vt 1.000000 0.500000
vt 0.000000 0.750000
vt 0.250000 0.750000
vt 0.500000 0.750000
vt 0.750000 0.750000
vt 1.000000 0.750000
vt 0.000000 0.500000
vt 0.000000 0.250000
vt 0.250000 0.250000
vt 0.250000 0.500000
vt 0.500000 0.250000
vt 0.500000 0.500000
vt 0.750000 0.250000
vt 0.750000 0.500000
vt 0.000000 0.750000
vt 0.250000 0.750000
vt 0.500000 0.750000
vt 0.750000 0.750000
vn -0.520407 0.000000 -0.853919
vn -0.520407 0.000000 -0.853919
vn -0.520407 0.000000 -0.853919
vn -0.520407 0.000000 -0.853919
vn -0.365591 0.000000 -0.930776
vn -0.365591 0.000000 -0.930776
vn -0.030179 0.000000 -0.999545
vn -0.030179 0.000000 -0.999545
vn -0.030179 0.000000 -0.999545
vn -0.030179 0.000000 -0.999545
vn 0.308770 0.000000 -0.951137
vn 0.308770 0.000000 -0.951137
vn 0.308770 0.000000 -0.951137
vn 0.308770 0.000000 -0.951137
vn 0.467913 0.000000 -0.883775
vn 0.467913 0.000000 -0.883775
vn -0.520379 0.000000 -0.853935
vn -0.520379 0.000000 -0.853935
vn -0.365591 0.000000 -0.930776
vn -0.365591 0.000000 -0.930776
vn -0.365591 0.000000 -0.930776
vn -0.365591 0.000000 -0.930776
vn -0.030179 0.000000 -0.999545
vn -0.030179 0.000000 -0.999545
vn -0.030179 0.000000 -0.999545
vn -0.030179 0.000000 -0.999545
vn 0.308770 0.000000 -0.951137
vn 0.308770 0.000000 -0.951137
vn 0.308770 0.000000 -0.951137
vn 0.308770 0.000000 -0.951137
vn 0.467913 0.000000 -0.883775
vn 0.467913 0.000000 -0.883775
vn -0.999703 0.000000 -0.024375
vn -0.999703 0.000000 -0.024375
vn -0.999703 0.000000 -0.024375
vn -0.999703 0.000000 -0.024375
vn -0.980573 0.000000 -0.196157
vn -0.980573 0.000000 -0.196157
vn -0.856926 0.000000 -0.515440
vn -0.856926 0.000000 -0.515440
vn -0.856926 0.000000 -0.515440
vn -0.856926 0.000000 -0.515440
vn -0.632822 0.000000 -0.774297
vn -0.632822 0.000000 -0.774297
vn -0.632822 0.000000 -0.774297
vn -0.632822 0.000000 -0.774297
vn -0.490065 0.000000 -0.871686
vn -0.490065 0.000000 -0.871686
vn -0.999702 0.000000 -0.024407
vn -0.999702 0.000000 -0.024407
vn -0.980573 0.000000 -0.196157
vn -0.980573 0.000000 -0.196157
vn -0.980573 0.000000 -0.196157
vn -0.980573 0.000000 -0.196157
vn -0.856926 0.000000 -0.515440
vn -0.856926 0.000000 -0.515440
vn -0.856926 0.000000 -0.515440
vn -0.856926 0.000000 -0.515440
vn -0.632822 0.000000 -0.774297
vn -0.632822 0.000000 -0.774297
vn -0.632822 0.000000 -0.774297
vn -0.632822 0.000000 -0.774297
vn -0.490065 0.000000 -0.871686
vn -0.490065 0.000000 -0.871686
vn 0.358823 0.000000 -0.933406
vn 0.358823 0.000000 -0.933406
vn 0.358823 0.000000 -0.933406
vn 0.358823 0.000000 -0.933406
vn 0.514193 0.000000 -0.857675
vn 0.514193 0.000000 -0.857675
vn 0.773376 0.000000 -0.633947
vn 0.773376 0.000000 -0.633947
vn 0.773376 0.000000 -0.633947
vn 0.773376 0.000000 -0.633947
vn 0.941897 0.000000 -0.335903
vn 0.941897 0.000000 -0.335903
vn 0.358853 0.000000 -0.933394
vn 0.358853 0.000000 -0.933394
vn 0.514193 0.000000 -0.857675
vn 0.514193 0.000000 -0.857675
vn 0.514193 0.000000 -0.857675
vn 0.514193 0.000000 -0.857675
vn 0.773376 0.000000 -0.633947
vn 0.773376 0.000000 -0.633947
vn 0.773376 0.000000 -0.633947
vn 0.773376 0.000000 -0.633947
vn 0.941897 0.000000 -0.335903
vn 0.941897 0.000000 -0.335903
s off
g polySurface17
usemtl lambert41SG
f 6/1/1 1/2/2 2/3/3 7/4/4
f 7/4/5 2/3/6 3/5/7 8/6/8
f 8/6/9 3/5/10 4/7/11 9/8/12
f 9/8/13 4/7/14 5/9/15 10/10/16
f 12/11/17 6/1/18 7/4/19 11/12/20
f 11/12/21 7/4/22 8/6/23 13/13/24
f 13/13/25 8/6/26 9/8/27 14/14/28
f 14/14/29 9/8/30 10/10/31 15/15/32
f 21/16/33 16/17/34 17/18/35 22/19/36
f 22/19/37 17/18/38 18/20/39 23/21/40
f 23/21/41 18/20/42 19/22/43 24/23/44
f 24/23/45 19/22/46 20/24/47 25/25/48
f 27/26/49 21/16/50 22/19/51 26/27/52
f 26/27/53 22/19/54 23/21/55 28/28/56
f 28/28/57 23/21/58 24/23/59 29/29/60
f 29/29/61 24/23/62 25/25/63 30/30/64
f 35/31/65 31/32/66 32/33/67 36/34/68
f 36/34/69 32/33/70 33/35/71 37/36/72
f 37/36/73 33/35/74 34/37/75 38/38/76
f 40/39/77 35/31/78 36/34/79 39/40/80
f 39/40/81 36/34/82 37/36/83 41/41/84
f 41/41/85 37/36/86 38/38/87 42/42/88
g default
v -85.760548 3.109378 -6.257856
v -85.760548 0.571358 -6.257856
v -80.111619 0.571358 -8.034590
v -80.111619 3.109378 -8.034590
v -74.462691 0.571358 -9.811323
v -74.462691 3.109378 -9.811323
v -68.813788 0.571358 -11.588050
v -68.813788 3.109378 -11.588050
v -63.164860 0.571358 -13.364784
v -63.164860 3.109378 -13.364784
v -85.760548 5.647381 -6.257856
v -80.111619 5.647381 -8.034590
v -74.462691 5.647381 -9.811323
v -68.813788 5.647381 -11.588050
v -63.164860 5.647381 -13.364784
v -85.760548 8.185402 -6.257856
v -80.111619 8.185402 -8.034590
v -74.462691 8.185402 -9.811323
v -68.813788 8.185402 -11.588050
v -63.164860 8.185402 -13.364784
v -85.760548 10.723405 -6.257856
v -80.111619 10.723405 -8.034590
v -74.462691 10.723405 -9.811323
v -68.813788 10.723405 -11.588050
v -63.164860 10.723405 -13.364784
vt 0.000000 0.250000
vt 0.000000 0.000000
vt 0.250000 0.000000
vt 0.250000 0.250000
vt 0.500000 0.000000
vt 0.500000 0.250000
vt 0.750000 0.000000
vt 0.750000 0.250000
vt 1.000000 0.000000
vt 1.000000 0.250000
vt 0.000000 0.500000
vt 0.250000 0.500000
vt 0.500000 0.500000
vt 0.750000 0.500000
vt 1.000000 0.500000
vt 0.000000 0.750000
vt 0.250000 0.750000
vt 0.500000 0.750000
vt 0.750000 0.750000
vt 1.000000 0.750000
vt 0.000000 1.000000
vt 0.250000 1.000000
vt 0.500000 1.000000
vt 0.750000 1.000000
vt 1.000000 1.000000
vn 0.300035 0.000000 0.953928
vn 0.300035 0.000000 0.953928
vn 0.300035 0.000000 0.953928
vn 0.300035 0.000000 0.953928
vn 0.300035 0.000000 0.953928
vn 0.300035 0.000000 0.953928
vn 0.300035 0.000000 0.953928
vn 0.300035 0.000000 0.953928
vn 0.300035 0.000000 0.953928
vn 0.300035 0.000000 0.953928
vn 0.300035 0.000000 0.953928
vn 0.300035 0.000000 0.953928
vn 0.300035 0.000000 0.953928
vn 0.300035 0.000000 0.953928
vn 0.300035 0.000000 0.953928
vn 0.300035 0.000000 0.953928
vn 0.300035 0.000000 0.953928
vn 0.300035 0.000000 0.953928
vn 0.300035 0.000000 0.953928
vn 0.300035 0.000000 0.953928
vn 0.300035 0.000000 0.953928
vn 0.300035 0.000000 0.953928
vn 0.300035 0.000000 0.953928
vn 0.300035 0.000000 0.953928
vn 0.300035 0.000000 0.953928
vn 0.300035 0.000000 0.953928
vn 0.300035 0.000000 0.953928
vn 0.300035 0.000000 0.953928
vn 0.300035 0.000000 0.953928
vn 0.300035 0.000000 0.953928
vn 0.300035 0.000000 0.953928
vn 0.300035 0.000000 0.953928
vn 0.300035 0.000000 0.953928
vn 0.300035 0.000000 0.953928
vn 0.300035 0.000000 0.953928
vn 0.300035 0.000000 0.953928
vn 0.300035 0.000000 0.953928
vn 0.300035 0.000000 0.953928
vn 0.300035 0.000000 0.953928
vn 0.300035 0.000000 0.953928
vn 0.300035 0.000000 0.953928
vn 0.300035 0.000000 0.953928
vn 0.300035 0.000000 0.953928
vn 0.300035 0.000000 0.953928
vn 0.300035 0.000000 0.953928
vn 0.300035 0.000000 0.953928
vn 0.300035 0.000000 0.953928
vn 0.300035 0.000000 0.953928
vn 0.300035 0.000000 0.953928
vn 0.300035 0.000000 0.953928
vn 0.300035 0.000000 0.953928
vn 0.300035 0.000000 0.953928
vn 0.300035 0.000000 0.953928
vn 0.300035 0.000000 0.953928
vn 0.300035 0.000000 0.953928
vn 0.300035 0.000000 0.953928
vn 0.300035 0.000000 0.953928
vn 0.300035 0.000000 0.953928
vn 0.300035 0.000000 0.953928
vn 0.300035 0.000000 0.953928
vn 0.300035 0.000000 0.953928
vn 0.300035 0.000000 0.953928
vn 0.300035 0.000000 0.953928
vn 0.300035 0.000000 0.953928
s off
g polySurface5 area_tortugas:Plane002
usemtl lambert39SG
f 43/43/89 44/44/90 45/45/91 46/46/92
f 46/46/93 45/45/94 47/47/95 48/48/96
f 48/48/97 47/47/98 49/49/99 50/50/100
f 50/50/101 49/49/102 51/51/103 52/52/104
f 53/53/105 43/43/106 46/46/107 54/54/108
f 54/54/109 46/46/110 48/48/111 55/55/112
f 55/55/113 48/48/114 50/50/115 56/56/116
f 56/56/117 50/50/118 52/52/119 57/57/120
f 58/58/121 53/53/122 54/54/123 59/59/124
f 59/59/125 54/54/126 55/55/127 60/60/128
f 60/60/129 55/55/130 56/56/131 61/61/132
f 61/61/133 56/56/134 57/57/135 62/62/136
f 63/63/137 58/58/138 59/59/139 64/64/140
f 64/64/141 59/59/142 60/60/143 65/65/144
f 65/65/145 60/60/146 61/61/147 66/66/148
f 66/66/149 61/61/150 62/62/151 67/67/152
g default
v -126.251021 1.325163 -9.059832
v -124.520410 1.325163 -13.571442
v -121.349120 1.325163 -17.248865
v -117.124385 1.325163 -19.643052
v -112.362097 1.325163 -20.461648
v -126.251021 5.663453 -9.059832
v -124.520410 5.663453 -13.571442
v -121.349120 5.663453 -17.248865
v -117.124385 5.663453 -19.643052
v -112.362097 5.663453 -20.461648
v -124.520410 9.953175 -13.571442
v -126.251021 9.953175 -9.059832
v -121.349120 9.953175 -17.248865
v -117.124385 9.953175 -19.643052
v -112.362097 9.953175 -20.461648
vt 0.000000 0.500000
vt 0.000000 0.250000
vt 0.250000 0.250000
vt 0.250000 0.500000
vt 0.500000 0.250000
vt 0.500000 0.500000
vt 0.750000 0.250000
vt 0.750000 0.500000
vt 1.000000 0.250000
vt 1.000000 0.500000
vt 0.000000 0.750000
vt 0.250000 0.750000
vt 0.500000 0.750000
vt 0.750000 0.750000
vt 1.000000 0.750000
vn 0.933666 0.000000 0.358145
vn 0.933666 0.000000 0.358145
vn 0.933666 0.000000 0.358145
vn 0.933666 0.000000 0.358145
vn 0.858048 0.000000 0.513570
vn 0.858048 0.000000 0.513570
vn 0.634509 0.000000 0.772916
vn 0.634509 0.000000 0.772916
vn 0.634509 0.000000 0.772916
vn 0.634509 0.000000 0.772916
vn 0.336587 0.000000 0.941653
vn 0.336587 0.000000 0.941653
vn 0.336587 0.000000 0.941653
vn 0.336587 0.000000 0.941653
vn 0.169440 0.000000 0.985540
vn 0.169440 0.000000 0.985540
vn 0.933654 0.000000 0.358175
vn 0.933654 0.000000 0.358175
vn 0.858048 0.000000 0.513570
vn 0.858048 0.000000 0.513570
vn 0.858048 0.000000 0.513570
vn 0.858048 0.000000 0.513570
vn 0.634509 0.000000 0.772916
vn 0.634509 0.000000 0.772916
vn 0.634509 0.000000 0.772916
vn 0.634509 0.000000 0.772916
vn 0.336587 0.000000 0.941653
vn 0.336587 0.000000 0.941653
vn 0.336587 0.000000 0.941653
vn 0.336587 0.000000 0.941653
vn 0.169440 0.000000 0.985540
vn 0.169440 0.000000 0.985540
s off
g polySurface3 pPlane5
usemtl lambert38SG
f 73/68/153 68/69/154 69/70/155 74/71/156
f 74/71/157 69/70/158 70/72/159 75/73/160
f 75/73/161 70/72/162 71/74/163 76/75/164
f 76/75/165 71/74/166 72/76/167 77/77/168
f 79/78/169 73/68/170 74/71/171 78/79/172
f 78/79/173 74/71/174 75/73/175 80/80/176
f 80/80/177 75/73/178 76/75/179 81/81/180
f 81/81/181 76/75/182 77/77/183 82/82/184
g default
v -48.259745 1.325163 -31.028125
v -47.224833 1.325163 -35.748147
v -44.640494 1.325163 -39.859316
v -40.822291 1.325163 -42.859623
v -36.236473 1.325163 -44.382696
v -48.259745 5.663453 -31.028125
v -47.224833 5.663453 -35.748147
v -44.640494 5.663453 -39.859316
v -40.822291 5.663453 -42.859623
v -36.236473 5.663453 -44.382696
v -47.224833 9.953175 -35.748147
v -48.259745 9.953175 -31.028125
v -44.640494 9.953175 -39.859316
v -40.822291 9.953175 -42.859623
v -36.236473 9.953175 -44.382696
vt 0.000000 0.500000
vt 0.000000 0.250000
vt 0.250000 0.250000
vt 0.250000 0.500000
vt 0.500000 0.250000
vt 0.500000 0.500000
vt 0.750000 0.250000
vt 0.750000 0.500000
vt 1.000000 0.250000
vt 1.000000 0.500000
vt 0.000000 0.750000
vt 0.250000 0.750000
vt 0.500000 0.750000
vt 0.750000 0.750000
vt 1.000000 0.750000
vn 0.976796 0.000000 0.214172
vn 0.976796 0.000000 0.214172
vn 0.976796 0.000000 0.214172
vn 0.976796 0.000000 0.214172
vn 0.925325 0.000000 0.379174
vn 0.925325 0.000000 0.379174
vn 0.743179 0.000000 0.669093
vn 0.743179 0.000000 0.669093
vn 0.743179 0.000000 0.669093
vn 0.743179 0.000000 0.669093
vn 0.473910 0.000000 0.880573
vn 0.473910 0.000000 0.880573
vn 0.473910 0.000000 0.880573
vn 0.473910 0.000000 0.880573
vn 0.315229 0.000000 0.949016
vn 0.315229 0.000000 0.949016
vn 0.976789 0.000000 0.214203
vn 0.976789 0.000000 0.214203
vn 0.925325 0.000000 0.379174
vn 0.925325 0.000000 0.379174
vn 0.925325 0.000000 0.379174
vn 0.925325 0.000000 0.379174
vn 0.743179 0.000000 0.669093
vn 0.743179 0.000000 0.669093
vn 0.743179 0.000000 0.669093
vn 0.743179 0.000000 0.669093
vn 0.473910 0.000000 0.880573
vn 0.473910 0.000000 0.880573
vn 0.473910 0.000000 0.880573
vn 0.473910 0.000000 0.880573
vn 0.315229 0.000000 0.949016
vn 0.315229 0.000000 0.949016
s off
g polySurface7 pPlane6
usemtl lambert40SG
f 88/83/185 83/84/186 84/85/187 89/86/188
f 89/86/189 84/85/190 85/87/191 90/88/192
f 90/88/193 85/87/194 86/89/195 91/90/196
f 91/90/197 86/89/198 87/91/199 92/92/200
f 94/93/201 88/83/202 89/86/203 93/94/204
f 93/94/205 89/86/206 90/88/207 95/95/208
f 95/95/209 90/88/210 91/90/211 96/96/212
f 96/96/213 91/90/214 92/92/215 97/97/216
