# This file uses centimeters as units for non-parametric coordinates.

mtllib entrada.mtl
g default
v -379.488120 0.106424 187.161011
v -379.488120 20.908052 187.161011
v -379.488120 20.908052 112.653885
v -379.488120 0.106424 112.653885
v -433.030356 0.106424 112.224213
v -433.030356 20.908052 112.224213
v -433.030356 20.908052 -9.789547
v -433.030356 0.106424 -9.789547
v -340.318015 0.106424 187.211533
v -340.318015 0.106424 185.309616
v -340.318015 20.908052 187.211533
v -340.318015 20.908052 185.309616
v -380.377463 20.908052 187.211533
v -380.377463 20.908052 185.309616
v -380.377463 0.106424 187.211533
v -380.377463 0.106424 185.309616
v -381.417929 0.106424 187.160965
v -381.417929 20.908052 187.161011
v -381.417929 20.908052 112.653885
v -381.417929 0.106424 112.653854
v -379.516013 0.106424 187.160980
v -379.516013 20.908052 187.160980
v -379.516013 0.106424 112.653870
v -379.516013 20.908052 112.653870
v -379.656180 -0.104251 113.909813
v -379.656180 -0.104251 112.007912
v -379.656180 21.118729 113.909813
v -379.656180 21.118729 112.007912
v -434.987632 21.118729 113.909813
v -434.987632 21.118729 112.007912
v -434.987662 -0.104251 113.909813
v -434.987632 -0.104251 112.007912
v -434.960166 0.106424 112.224152
v -434.960166 20.908052 112.224213
v -434.960166 20.908052 -9.789547
v -434.960166 0.106424 -9.789604
v -433.058249 0.106424 112.224182
v -433.058249 20.908052 112.224182
v -433.058249 0.106424 -9.789574
v -433.058249 20.908052 -9.789574
v -434.817099 -0.051441 28.389114
v -432.990867 -0.051441 30.215366
v -434.817099 20.915936 28.389118
v -432.990867 20.915936 30.215366
v -413.841727 20.915936 7.413733
v -412.015464 20.915936 9.239981
v -413.841727 -0.051441 7.413728
v -412.015464 -0.051441 9.239981
vt 0.016736 0.018804
vt 0.977359 0.018804
vt 0.977359 0.979427
vt 0.016736 0.979427
vt 0.014249 0.018443
vt 0.984097 0.018443
vt 0.984097 0.988291
vt 0.014249 0.988291
vt 0.375000 0.000000
vt 0.625000 0.000000
vt 0.625000 0.250000
vt 0.375000 0.250000
vt 0.625000 0.500000
vt 0.375000 0.500000
vt 0.625000 0.750000
vt 0.375000 0.750000
vt 0.625000 1.000000
vt 0.375000 1.000000
vt 0.875000 0.000000
vt 0.875000 0.250000
vt 0.125000 0.000000
vt 0.125000 0.250000
vt 0.375000 0.000000
vt 0.625000 0.000000
vt 0.625000 0.250000
vt 0.375000 0.250000
vt 0.625000 0.500000
vt 0.375000 0.500000
vt 0.625000 0.750000
vt 0.375000 0.750000
vt 0.625000 1.000000
vt 0.375000 1.000000
vt 0.125000 0.000000
vt 0.125000 0.250000
vt 0.375000 0.000000
vt 0.625000 0.000000
vt 0.625000 0.250000
vt 0.375000 0.250000
vt 0.625000 0.500000
vt 0.375000 0.500000
vt 0.625000 0.750000
vt 0.375000 0.750000
vt 0.625000 1.000000
vt 0.375000 1.000000
vt 0.875000 0.000000
vt 0.875000 0.250000
vt 0.125000 0.000000
vt 0.125000 0.250000
vt 0.375000 0.000000
vt 0.625000 0.000000
vt 0.625000 0.250000
vt 0.375000 0.250000
vt 0.625000 0.500000
vt 0.375000 0.500000
vt 0.625000 0.750000
vt 0.375000 0.750000
vt 0.625000 1.000000
vt 0.375000 1.000000
vt 0.125000 0.000000
vt 0.125000 0.250000
vt 0.375000 0.000000
vt 0.625000 0.000000
vt 0.625000 0.250000
vt 0.375000 0.250000
vt 0.625000 0.500000
vt 0.375000 0.500000
vt 0.625000 0.750000
vt 0.375000 0.750000
vt 0.625000 1.000000
vt 0.375000 1.000000
vt 0.875000 0.000000
vt 0.875000 0.250000
vt 0.125000 0.000000
vt 0.125000 0.250000
vn 1.000000 0.000000 0.000000
vn 1.000000 0.000000 0.000000
vn 1.000000 0.000000 0.000000
vn 1.000000 0.000000 0.000000
vn 1.000000 0.000000 0.000000
vn 1.000000 0.000000 0.000000
vn 1.000000 0.000000 0.000000
vn 1.000000 0.000000 0.000000
vn 1.000000 0.000000 0.000000
vn 1.000000 0.000000 0.000000
vn 1.000000 0.000000 0.000000
vn 1.000000 0.000000 0.000000
vn 0.000000 1.000000 0.000000
vn 0.000000 1.000000 0.000000
vn 0.000000 1.000000 0.000000
vn 0.000000 1.000000 0.000000
vn -1.000000 0.000000 0.000000
vn -1.000000 0.000000 0.000000
vn -1.000000 0.000000 0.000000
vn -1.000000 0.000000 0.000000
vn 0.000000 -1.000000 0.000000
vn 0.000000 -1.000000 0.000000
vn 0.000000 -1.000000 0.000000
vn 0.000000 -1.000000 0.000000
vn 0.000000 0.000000 -1.000000
vn 0.000000 0.000000 -1.000000
vn 0.000000 0.000000 -1.000000
vn 0.000000 0.000000 -1.000000
vn 0.000000 0.000000 1.000000
vn 0.000000 0.000000 1.000000
vn 0.000000 0.000000 1.000000
vn 0.000000 0.000000 1.000000
vn 0.000000 -0.000001 1.000000
vn 0.000000 -0.000001 1.000000
vn 0.000000 -0.000001 1.000000
vn 0.000000 -0.000001 1.000000
vn 0.000000 1.000000 0.000000
vn 0.000000 1.000000 0.000000
vn 0.000000 1.000000 0.000000
vn 0.000000 1.000000 0.000000
vn 0.000000 0.000001 -1.000000
vn 0.000000 0.000001 -1.000000
vn 0.000000 0.000001 -1.000000
vn 0.000000 0.000001 -1.000000
vn 0.000000 -1.000000 0.000000
vn 0.000000 -1.000000 0.000000
vn 0.000000 -1.000000 0.000000
vn 0.000000 -1.000000 0.000000
vn -1.000000 0.000000 0.000000
vn -1.000000 0.000000 0.000000
vn -1.000000 0.000000 0.000000
vn -1.000000 0.000000 0.000000
vn 1.000000 0.000000 0.000000
vn 1.000000 0.000000 0.000000
vn 1.000000 0.000000 0.000000
vn 1.000000 0.000000 0.000000
vn 0.000000 1.000000 0.000000
vn 0.000000 1.000000 0.000000
vn 0.000000 1.000000 0.000000
vn 0.000000 1.000000 0.000000
vn -1.000000 0.000000 -0.000008
vn -1.000000 0.000000 -0.000008
vn -1.000000 0.000000 -0.000008
vn -1.000000 0.000000 -0.000008
vn 0.000000 -1.000000 0.000000
vn 0.000000 -1.000000 0.000000
vn 0.000000 -1.000000 0.000000
vn 0.000000 -1.000000 0.000000
vn 0.000000 0.000000 -1.000000
vn 0.000000 0.000000 -1.000000
vn 0.000000 0.000000 -1.000000
vn 0.000000 0.000000 -1.000000
vn 0.000000 0.000000 1.000000
vn 0.000000 0.000000 1.000000
vn 0.000000 0.000000 1.000000
vn 0.000000 0.000000 1.000000
vn 0.000000 -0.000001 1.000000
vn 0.000000 -0.000001 1.000000
vn 0.000000 -0.000001 1.000000
vn 0.000000 -0.000001 1.000000
vn 0.000000 1.000000 0.000000
vn 0.000000 1.000000 0.000000
vn 0.000000 1.000000 0.000000
vn 0.000000 1.000000 0.000000
vn 0.000001 0.000001 -1.000000
vn 0.000001 0.000001 -1.000000
vn 0.000001 0.000001 -1.000000
vn 0.000001 0.000001 -1.000000
vn 0.000000 -1.000000 0.000000
vn 0.000000 -1.000000 0.000000
vn 0.000000 -1.000000 0.000000
vn 0.000000 -1.000000 0.000000
vn -1.000000 0.000001 0.000000
vn -1.000000 0.000001 0.000000
vn -1.000000 0.000001 0.000000
vn -1.000000 0.000001 0.000000
vn -0.707110 -0.000000 0.707103
vn -0.707110 -0.000000 0.707103
vn -0.707110 -0.000000 0.707103
vn -0.707110 -0.000000 0.707103
vn 0.000000 1.000000 0.000000
vn 0.000000 1.000000 0.000000
vn 0.000000 1.000000 0.000000
vn 0.000000 1.000000 0.000000
vn 0.707104 -0.000001 -0.707109
vn 0.707104 -0.000001 -0.707109
vn 0.707104 -0.000001 -0.707109
vn 0.707104 -0.000001 -0.707109
vn 0.000000 -1.000000 0.000000
vn 0.000000 -1.000000 0.000000
vn 0.000000 -1.000000 0.000000
vn 0.000000 -1.000000 0.000000
vn 0.707106 0.000000 0.707107
vn 0.707106 0.000000 0.707107
vn 0.707106 0.000000 0.707107
vn 0.707106 0.000000 0.707107
vn -0.707107 0.000002 -0.707107
vn -0.707107 0.000002 -0.707107
vn -0.707107 0.000002 -0.707107
vn -0.707107 0.000002 -0.707107
s off
g polySurface388
usemtl lambert44SG
f 1/1/1 4/2/2 3/3/3 2/4/4
f 5/5/5 8/6/6 7/7/7 6/8/8
f 9/9/9 10/10/10 12/11/11 11/12/12
f 11/12/13 12/11/14 14/13/15 13/14/16
f 13/14/17 14/13/18 16/15/19 15/16/20
f 15/16/21 16/15/22 10/17/23 9/18/24
f 10/10/25 16/19/26 14/20/27 12/11/28
f 15/21/29 9/9/30 11/12/31 13/22/32
f 17/23/33 21/24/34 22/25/35 18/26/36
f 18/26/37 22/25/38 24/27/39 19/28/40
f 19/28/41 24/27/42 23/29/43 20/30/44
f 20/30/45 23/29/46 21/31/47 17/32/48
f 20/33/49 17/23/50 18/26/51 19/34/52
f 25/35/53 26/36/54 28/37/55 27/38/56
f 27/38/57 28/37/58 30/39/59 29/40/60
f 29/40/61 30/39/62 32/41/63 31/42/64
f 31/42/65 32/41/66 26/43/67 25/44/68
f 26/36/69 32/45/70 30/46/71 28/37/72
f 31/47/73 25/35/74 27/38/75 29/48/76
f 33/49/77 37/50/78 38/51/79 34/52/80
f 34/52/81 38/51/82 40/53/83 35/54/84
f 35/54/85 40/53/86 39/55/87 36/56/88
f 36/56/89 39/55/90 37/57/91 33/58/92
f 36/59/93 33/49/94 34/52/95 35/60/96
f 41/61/97 42/62/98 44/63/99 43/64/100
f 43/64/101 44/63/102 46/65/103 45/66/104
f 45/66/105 46/65/106 48/67/107 47/68/108
f 47/68/109 48/67/110 42/69/111 41/70/112
f 42/62/113 48/71/114 46/72/115 44/63/116
f 47/73/117 41/61/118 43/64/119 45/74/120
